<?xml version="1.0" encoding="UTF-8"?>
<!-- Generator: Adobe Illustrator 14.0.0, SVG Export Plug-In . SVG Version: 6.00 Build 43363)  -->
<!DOCTYPE svg PUBLIC "-//W3C//DTD SVG 1.1//EN" "http://www.w3.org/Graphics/SVG/1.1/DTD/svg11.dtd">
<svg version="1.1" id="Layer_1" xmlns="http://www.w3.org/2000/svg" xmlns:xlink="http://www.w3.org/1999/xlink" x="0px" y="0px" width="60px" height="50px" viewBox="0 0 300 250" enable-background="new 0 0 300 250" xml:space="preserve">
<path id="path3818_4_" d="M32.923,172.152L9.042,238.605H54.12c12.969,0,31.457-7.656,37.116-25.758L137.12,85.126l45.883,127.722  c5.66,18.102,24.146,25.758,37.118,25.758h45.078l0,0l-23.881-66.455h42.753c4.558,0,6.84-3.354,5.188-7.603l-7.78-20.034  c-1.653-4.246-6.623-7.69-11.182-7.69h-41.679l-6.173-17.083h39.532c4.558,0,6.841-3.445,5.188-7.691l-7.78-19.945  c-1.653-4.246-6.624-7.69-11.182-7.69h-38.46L190.428,30.75c-31.682-18.291-76.615-17.319-106.613,0L64.496,84.413"/>
<path id="path3818_3_" d="M51.794,119.739l-6.172,17.083"/>
<path id="path3818_2_" d="M197.497,68.247h42.753c4.557,0,6.84-3.355,5.188-7.603l-7.78-20.034  c-1.653-4.246-6.623-7.691-11.182-7.691h-41.679"/>
</svg>