<?xml version="1.0" encoding="UTF-8"?>
<!-- Generator: Adobe Illustrator 14.0.0, SVG Export Plug-In . SVG Version: 6.00 Build 43363)  -->
<!DOCTYPE svg PUBLIC "-//W3C//DTD SVG 1.1//EN" "http://www.w3.org/Graphics/SVG/1.1/DTD/svg11.dtd">
<svg version="1.1" id="Layer_1" xmlns="http://www.w3.org/2000/svg" xmlns:xlink="http://www.w3.org/1999/xlink" x="0px" y="0px" width="50px" height="50px" viewBox="0 0 50 50" enable-background="new 0 0 50 50" xml:space="preserve">
<path fill="#FFFFFF" d="M25.097,2.008c-10.89,0-19.716,8.827-19.716,19.717v9.317c0,4.031,3.269,7.302,7.302,7.302h0.641v6.237  c0,1.625,1.318,2.942,2.944,2.942c1.626,0,2.941-1.317,2.941-2.942c0,1.625,1.319,2.942,2.944,2.942s2.944-1.317,2.944-2.942  c0,1.625,1.318,2.942,2.942,2.942c1.627,0,2.942-1.317,2.942-2.942c0,1.625,1.316,2.942,2.943,2.942  c1.625,0,2.942-1.317,2.942-2.942v-6.237h0.639c4.034,0,7.306-3.271,7.306-7.302v-9.317C44.812,10.835,35.985,2.008,25.097,2.008"/>
<g>
	<rect x="25.097" y="2.008" fill="none" width="19.714" height="45.518"/>
	<path fill="#E5E5E4" d="M28.039,47.526c1.627,0,2.942-1.318,2.942-2.945c0,1.627,1.319,2.945,2.944,2.945   c1.624,0,2.941-1.318,2.941-2.945v-6.234h0.643c4.03,0,7.298-3.267,7.298-7.305v-9.317c0-10.89-8.823-19.717-19.713-19.717v42.573   C25.097,46.208,26.415,47.526,28.039,47.526"/>
</g>
<path fill="#303030" d="M40.796,30.125c0,2.903-2.354,5.258-5.257,5.258c-2.904,0-5.258-2.354-5.258-5.258s2.354-5.26,5.258-5.26  C38.438,24.865,40.796,27.222,40.796,30.125"/>
<path fill="#303030" d="M19.916,30.125c0,2.903-2.355,5.258-5.26,5.258c-2.904,0-5.256-2.354-5.256-5.258s2.353-5.26,5.256-5.26  C17.56,24.865,19.916,27.222,19.916,30.125"/>
<path fill="#303030" d="M28.039,36.485c-0.597-1.855-1.609-3.542-2.942-5.095c-1.334,1.553-2.348,3.24-2.944,5.095  c0,0.446,1.66,0.65,3.218,0.621C26.746,37.082,28.039,36.876,28.039,36.485"/>
</svg>