<?xml version="1.0" encoding="UTF-8"?>
<!-- Generator: Adobe Illustrator 14.0.0, SVG Export Plug-In . SVG Version: 6.00 Build 43363)  -->
<!DOCTYPE svg PUBLIC "-//W3C//DTD SVG 1.1//EN" "http://www.w3.org/Graphics/SVG/1.1/DTD/svg11.dtd">
<svg version="1.1" id="Layer_1" xmlns="http://www.w3.org/2000/svg" xmlns:xlink="http://www.w3.org/1999/xlink" x="0px" y="0px" width="550px" height="300px" viewBox="0 0 550 300" enable-background="new 0 0 550 300" xml:space="preserve">
<path pointer-events="all" fill="#FFFFFF" stroke="#010101" stroke-width="2" stroke-miterlimit="10" d="M409.5,23.5h120v260h-150  v-230L409.5,23.5z"/>
<path pointer-events="all" fill="#FFFFFF" stroke="#010101" stroke-width="2" stroke-miterlimit="10" d="M189.5,23.5h130v260h-160  v-230L189.5,23.5z"/>
<path pointer-events="all" fill="#FFFFFF" stroke="#010101" stroke-width="2" stroke-miterlimit="10" d="M409.5,198.5  c0-8.279,17.91-15,40-15c10.61,0,20.78,1.58,28.28,4.391c7.51,2.819,11.72,6.629,11.72,10.609v50c0,8.279-17.91,15-40,15  s-40-6.721-40-15V198.5z"/>
<path pointer-events="all" fill="none" stroke="#010101" stroke-width="2" stroke-miterlimit="10" d="M489.5,198.5  c0,8.279-17.91,15-40,15s-40-6.721-40-15"/>
<g>
	<path fill="#010101" d="M439.57,229.58c0,0.947-0.143,1.463-0.6,2.039c-0.6,0.779-1.427,1.188-2.398,1.188   c-1.643,0-3.021-1.332-3.021-2.902c0-0.613,0.371-1.031,0.911-1.031c0.468,0,0.852,0.348,0.899,0.814l0.023,0.203   c0.072,0.637,0.54,1.08,1.164,1.08c0.443,0,0.852-0.24,1.031-0.611c0.132-0.264,0.156-0.408,0.156-0.984v-3.537v-0.203   c0.012-0.625,0.371-1.02,0.924-1.02c0.539,0,0.91,0.406,0.91,1.02v0.203V229.58z"/>
	<path fill="#010101" d="M446.075,226.113c0,0.469-0.36,0.852-0.804,0.852c-0.156,0-0.324-0.061-0.456-0.156   c-0.024-0.012-0.18-0.143-0.407-0.322c-0.313-0.252-0.636-0.385-0.936-0.385c-0.492,0-0.9,0.336-0.9,0.732   c0,0.395,0.24,0.588,0.973,0.768c0.695,0.168,1.199,0.336,1.595,0.527c0.839,0.395,1.295,1.127,1.295,2.051   c0,1.559-1.187,2.627-2.914,2.627c-1.56,0-2.938-0.912-2.938-1.943c0-0.469,0.384-0.875,0.828-0.875   c0.335,0,0.587,0.119,0.982,0.467c0.469,0.432,0.852,0.611,1.26,0.611c0.539,0,0.947-0.371,0.947-0.863   c0-0.42-0.287-0.684-0.936-0.875l-0.791-0.229c-0.588-0.168-1.068-0.371-1.367-0.588c-0.48-0.322-0.744-0.898-0.744-1.594   c0-1.381,1.14-2.352,2.783-2.352C444.936,224.566,446.075,225.262,446.075,226.113z"/>
	<path fill="#010101" d="M454.211,225.803c0.779,0.742,1.211,1.785,1.211,2.902c0,2.254-1.859,4.102-4.126,4.102   c-2.291,0-4.138-1.836-4.138-4.115c0-2.277,1.835-4.125,4.113-4.125C452.327,224.566,453.395,225.021,454.211,225.803z    M448.98,228.705c0,1.258,1.044,2.289,2.315,2.289s2.29-1.02,2.29-2.289c0-1.271-1.031-2.316-2.29-2.316   S448.98,227.445,448.98,228.705z"/>
	<path fill="#010101" d="M461.759,225.838v-0.203c0.013-0.625,0.372-1.02,0.911-1.02c0.553,0,0.924,0.406,0.924,1.02v0.203v5.756   c0,0.445-0.023,0.6-0.145,0.768c-0.18,0.277-0.491,0.445-0.826,0.445c-0.336,0-0.517-0.109-0.864-0.576l-3.263-4.186v3.49v0.203   c0,0.623-0.359,1.031-0.911,1.031s-0.923-0.42-0.923-1.031v-0.203v-5.854c0-0.348,0.035-0.504,0.155-0.672   c0.181-0.264,0.433-0.395,0.72-0.395c0.336,0,0.552,0.119,0.863,0.527l3.358,4.232V225.838z"/>
</g>
<g>
	<path fill="#010101" d="M427.234,240.369v-0.215c0.012-0.695,0.383-1.068,1.066-1.068h0.217h1.547c1.235,0,1.99,0.229,2.746,0.828   c0.984,0.791,1.56,1.955,1.56,3.191c0,1.379-0.731,2.674-1.931,3.404c-0.624,0.385-1.404,0.576-2.375,0.576h-1.547h-0.217   c-0.695-0.012-1.066-0.383-1.066-1.066v-0.217V240.369z M429.849,245.42c0.792,0,1.247-0.096,1.655-0.361   c0.635-0.406,1.031-1.15,1.031-1.953c0-1.381-1.067-2.303-2.675-2.303h-0.792v4.617H429.849z"/>
	<path fill="#010101" d="M437.025,247.195c-1.115,0-1.979-0.9-1.979-2.053c0-1.186,0.91-2.098,2.086-2.098   c0.396,0,0.756,0.107,1.188,0.336c0-0.588-0.203-0.805-0.707-0.805c-0.108,0-0.288,0.025-0.432,0.061l-0.385,0.107   c-0.228,0.072-0.359,0.096-0.491,0.096c-0.372,0-0.624-0.264-0.624-0.635c0-0.623,0.779-1.031,1.907-1.031   c0.779,0,1.463,0.229,1.871,0.635c0.359,0.373,0.503,0.912,0.491,1.836v0.42v1.822v0.217c0,0.406-0.035,0.563-0.18,0.756   c-0.156,0.203-0.384,0.311-0.647,0.311c-0.336,0-0.563-0.143-0.743-0.492C437.912,247.039,437.505,247.195,437.025,247.195z    M437.529,244.268c-0.432,0-0.78,0.359-0.78,0.805c0,0.455,0.349,0.803,0.804,0.803c0.443,0,0.768-0.336,0.768-0.779   C438.32,244.627,437.984,244.268,437.529,244.268z"/>
	<path fill="#010101" d="M441.634,240.563v-0.18c0.012-0.553,0.323-0.889,0.804-0.889c0.467,0,0.791,0.359,0.791,0.889v0.18v0.852   h0.18h0.168c0.48,0.012,0.792,0.287,0.792,0.719c0,0.42-0.323,0.721-0.792,0.721h-0.168h-0.18v3.25v0.18   c-0.012,0.539-0.324,0.887-0.803,0.887c-0.469,0-0.792-0.359-0.792-0.887v-0.18v-3.25c-0.036,0-0.06,0-0.084,0   c-0.516,0-0.827-0.277-0.827-0.721c0-0.479,0.323-0.73,0.911-0.719V240.563z"/>
	<path fill="#010101" d="M446.625,247.195c-1.115,0-1.979-0.9-1.979-2.053c0-1.186,0.91-2.098,2.086-2.098   c0.396,0,0.756,0.107,1.188,0.336c0-0.588-0.203-0.805-0.707-0.805c-0.108,0-0.288,0.025-0.432,0.061l-0.385,0.107   c-0.228,0.072-0.359,0.096-0.491,0.096c-0.372,0-0.624-0.264-0.624-0.635c0-0.623,0.779-1.031,1.907-1.031   c0.779,0,1.463,0.229,1.871,0.635c0.359,0.373,0.503,0.912,0.491,1.836v0.42v1.822v0.217c0,0.406-0.035,0.563-0.18,0.756   c-0.156,0.203-0.384,0.311-0.647,0.311c-0.336,0-0.563-0.143-0.743-0.492C447.512,247.039,447.104,247.195,446.625,247.195z    M447.129,244.268c-0.432,0-0.78,0.359-0.78,0.805c0,0.455,0.349,0.803,0.804,0.803c0.443,0,0.768-0.336,0.768-0.779   C447.92,244.627,447.584,244.268,447.129,244.268z"/>
	<path fill="#010101" d="M454.148,241.293c1.559,0,2.734,1.271,2.734,2.951c0,1.703-1.176,2.963-2.771,2.963   c-0.659,0-1.116-0.168-1.632-0.613c-0.131,0.396-0.371,0.576-0.755,0.576c-0.288,0-0.54-0.131-0.647-0.348   c-0.096-0.168-0.12-0.313-0.12-0.695v-5.973v-0.18c0.012-0.539,0.323-0.889,0.804-0.889c0.467,0,0.791,0.361,0.791,0.889v0.18   v1.691C453.045,241.461,453.524,241.293,454.148,241.293z M452.518,244.244c0,0.756,0.6,1.355,1.343,1.355   c0.755,0,1.354-0.611,1.354-1.367c0-0.732-0.611-1.332-1.354-1.332C453.129,242.9,452.518,243.5,452.518,244.244z"/>
	<path fill="#010101" d="M459.5,247.195c-1.115,0-1.979-0.9-1.979-2.053c0-1.186,0.912-2.098,2.087-2.098   c0.396,0,0.756,0.107,1.188,0.336c0-0.588-0.204-0.805-0.708-0.805c-0.107,0-0.287,0.025-0.432,0.061l-0.383,0.107   c-0.229,0.072-0.36,0.096-0.492,0.096c-0.372,0-0.624-0.264-0.624-0.635c0-0.623,0.78-1.031,1.907-1.031   c0.779,0,1.463,0.229,1.871,0.635c0.359,0.373,0.504,0.912,0.492,1.836v0.42v1.822v0.217c0,0.406-0.037,0.563-0.181,0.756   c-0.155,0.203-0.384,0.311-0.647,0.311c-0.336,0-0.564-0.143-0.744-0.492C460.389,247.039,459.98,247.195,459.5,247.195z    M460.004,244.268c-0.432,0-0.779,0.359-0.779,0.805c0,0.455,0.348,0.803,0.804,0.803c0.444,0,0.768-0.336,0.768-0.779   C460.796,244.627,460.46,244.268,460.004,244.268z"/>
	<path fill="#010101" d="M467.731,242.408c0,0.373-0.336,0.709-0.72,0.709c-0.204,0-0.384-0.061-0.684-0.24   c-0.384-0.217-0.492-0.275-0.66-0.275s-0.299,0.131-0.299,0.275c0,0.264,0.227,0.396,0.959,0.588   c0.539,0.143,0.779,0.227,1.031,0.359c0.492,0.275,0.779,0.791,0.779,1.391c0,1.176-0.947,1.992-2.303,1.992   c-1.247,0-2.398-0.756-2.398-1.572c0-0.432,0.336-0.814,0.731-0.814c0.265,0,0.517,0.131,0.84,0.406   c0.468,0.408,0.636,0.492,0.947,0.492s0.552-0.18,0.552-0.42c0-0.203-0.156-0.324-0.527-0.406   c-0.443-0.109-1.044-0.313-1.379-0.469c-0.528-0.264-0.876-0.828-0.876-1.416c0-0.67,0.443-1.295,1.128-1.57   c0.251-0.096,0.575-0.156,0.971-0.156C466.844,241.281,467.731,241.809,467.731,242.408z"/>
	<path fill="#010101" d="M471.764,245.563c0.324,0,0.6-0.096,0.924-0.336c0.191-0.143,0.324-0.191,0.504-0.191   c0.455,0,0.803,0.348,0.803,0.791c0,0.336-0.18,0.602-0.6,0.889c-0.443,0.313-1.055,0.492-1.631,0.492   c-1.607,0-2.975-1.367-2.975-2.975c0-1.596,1.344-2.939,2.927-2.939c1.296,0,2.507,0.947,2.507,1.992   c0,0.348-0.18,0.563-0.66,0.779l-2.662,1.176C471.164,245.467,471.416,245.563,471.764,245.563z M471.764,242.854   c-0.695,0-1.271,0.527-1.331,1.211l2.039-0.875C472.316,242.949,472.088,242.854,471.764,242.854z"/>
</g>
<path pointer-events="all" fill="#FFFFFF" stroke="#010101" stroke-width="2" stroke-miterlimit="10" d="M409.5,53.5h80V91l-40,22.5  l-40-22.5V53.5z"/>
<g>
	<path fill="#010101" d="M444.246,68.008c0,0.947-0.145,1.463-0.6,2.039c-0.6,0.779-1.428,1.188-2.398,1.188   c-1.644,0-3.023-1.331-3.023-2.902c0-0.612,0.372-1.031,0.912-1.031c0.468,0,0.852,0.348,0.899,0.815l0.024,0.203   c0.071,0.636,0.539,1.08,1.163,1.08c0.443,0,0.852-0.24,1.031-0.612c0.132-0.264,0.155-0.407,0.155-0.983v-3.538v-0.203   c0.013-0.624,0.373-1.02,0.924-1.02c0.54,0,0.912,0.407,0.912,1.02v0.203V68.008z"/>
	<path fill="#010101" d="M447.188,71.223c-1.115,0-1.979-0.9-1.979-2.052c0-1.187,0.911-2.099,2.087-2.099   c0.396,0,0.755,0.108,1.187,0.336c0-0.588-0.203-0.804-0.707-0.804c-0.107,0-0.288,0.024-0.432,0.061l-0.384,0.107   c-0.228,0.072-0.36,0.096-0.491,0.096c-0.373,0-0.625-0.264-0.625-0.635c0-0.624,0.78-1.032,1.908-1.032   c0.779,0,1.463,0.229,1.871,0.636c0.359,0.372,0.503,0.912,0.491,1.835v0.42v1.823v0.216c0,0.407-0.036,0.563-0.181,0.756   c-0.155,0.203-0.383,0.312-0.646,0.312c-0.336,0-0.564-0.144-0.744-0.492C448.075,71.066,447.668,71.223,447.188,71.223z    M447.691,68.296c-0.432,0-0.779,0.359-0.779,0.804c0,0.455,0.348,0.804,0.803,0.804c0.444,0,0.768-0.336,0.768-0.78   C448.482,68.655,448.146,68.296,447.691,68.296z"/>
	<path fill="#010101" d="M454.65,66.065c0.24-0.552,0.432-0.708,0.828-0.708c0.432,0,0.791,0.336,0.791,0.743   c0,0.145-0.035,0.3-0.107,0.444l-0.072,0.168l-1.775,3.897c-0.18,0.408-0.42,0.588-0.791,0.588c-0.384,0-0.588-0.156-0.791-0.588   l-1.824-3.886l-0.071-0.156c-0.071-0.168-0.108-0.323-0.108-0.468c0-0.407,0.36-0.743,0.78-0.743c0.419,0,0.6,0.156,0.851,0.708   l1.152,2.65L454.65,66.065z"/>
	<path fill="#010101" d="M458.396,71.223c-1.115,0-1.979-0.9-1.979-2.052c0-1.187,0.911-2.099,2.087-2.099   c0.396,0,0.756,0.108,1.188,0.336c0-0.588-0.204-0.804-0.708-0.804c-0.108,0-0.288,0.024-0.432,0.061l-0.384,0.107   c-0.229,0.072-0.359,0.096-0.492,0.096c-0.371,0-0.623-0.264-0.623-0.635c0-0.624,0.779-1.032,1.906-1.032   c0.779,0,1.464,0.229,1.871,0.636c0.36,0.372,0.504,0.912,0.492,1.835v0.42v1.823v0.216c0,0.407-0.036,0.563-0.18,0.756   c-0.156,0.203-0.385,0.312-0.648,0.312c-0.336,0-0.563-0.144-0.743-0.492C459.283,71.066,458.875,71.223,458.396,71.223z    M458.899,68.296c-0.432,0-0.779,0.359-0.779,0.804c0,0.455,0.348,0.804,0.804,0.804c0.443,0,0.768-0.336,0.768-0.78   C459.691,68.655,459.355,68.296,458.899,68.296z"/>
</g>
<g>
	<path fill="#010101" d="M427.73,80.609v-1.943v-0.203c0-0.624,0.359-1.02,0.911-1.02s0.923,0.407,0.923,1.02v0.203v5.697v0.204   c-0.023,0.623-0.371,1.031-0.923,1.031s-0.911-0.42-0.911-1.031v-0.204v-2.075h-2.986v2.075v0.204c0,0.623-0.36,1.031-0.912,1.031   s-0.924-0.42-0.924-1.031v-0.204v-5.697v-0.203c0.013-0.624,0.372-1.02,0.924-1.02s0.912,0.407,0.912,1.02v0.203v1.943H427.73z"/>
	<path fill="#010101" d="M436.73,82.696c0,1.607-1.344,2.938-2.975,2.938s-2.986-1.319-2.986-2.902c0-1.691,1.318-3.011,2.998-3.011   C435.41,79.722,436.73,81.041,436.73,82.696z M432.4,82.708c0,0.708,0.611,1.308,1.355,1.308c0.743,0,1.355-0.6,1.355-1.344   c0-0.755-0.6-1.354-1.344-1.354C432.988,81.317,432.4,81.917,432.4,82.708z"/>
	<path fill="#010101" d="M438.053,78.99v-0.18c0.012-0.552,0.324-0.888,0.803-0.888c0.469,0,0.792,0.359,0.792,0.888v0.18v0.852   h0.181h0.168c0.479,0.012,0.791,0.288,0.791,0.72c0,0.42-0.324,0.72-0.791,0.72h-0.168h-0.181v3.25v0.18   c-0.012,0.54-0.323,0.888-0.804,0.888c-0.467,0-0.791-0.359-0.791-0.888v-0.18v-3.25c-0.036,0-0.061,0-0.084,0   c-0.516,0-0.828-0.276-0.828-0.72c0-0.479,0.324-0.731,0.912-0.72V78.99z"/>
	<path fill="#010101" d="M442.516,83.14c-0.6,0-0.959-0.3-0.959-0.791c0-0.48,0.359-0.804,0.887-0.804h0.181h0.647h0.18   c0.54,0.012,0.888,0.323,0.888,0.791c0,0.48-0.36,0.804-0.888,0.804h-0.096h-0.731C442.576,83.14,442.54,83.14,442.516,83.14z"/>
	<path fill="#010101" d="M449.811,78.582v-0.18c0.012-0.539,0.323-0.888,0.791-0.888c0.48,0,0.804,0.36,0.804,0.888v0.18v5.974   c0,0.383-0.024,0.539-0.12,0.695c-0.119,0.228-0.359,0.348-0.647,0.348c-0.384,0-0.612-0.18-0.755-0.576   c-0.517,0.444-0.973,0.612-1.632,0.612c-1.595,0-2.771-1.26-2.771-2.963c0-1.679,1.176-2.95,2.734-2.95   c0.624,0,1.104,0.168,1.596,0.552V78.582z M447.147,82.66c0,0.756,0.6,1.367,1.355,1.367c0.743,0,1.343-0.611,1.343-1.355   c0-0.743-0.611-1.343-1.343-1.343C447.76,81.329,447.147,81.929,447.147,82.66z"/>
	<path fill="#010101" d="M455.428,83.991c0.323,0,0.6-0.096,0.923-0.336c0.192-0.144,0.323-0.191,0.504-0.191   c0.456,0,0.804,0.348,0.804,0.791c0,0.336-0.18,0.601-0.6,0.888c-0.444,0.313-1.056,0.492-1.631,0.492   c-1.607,0-2.975-1.367-2.975-2.975c0-1.595,1.343-2.938,2.926-2.938c1.295,0,2.507,0.947,2.507,1.991   c0,0.348-0.18,0.563-0.659,0.779l-2.663,1.176C454.828,83.896,455.079,83.991,455.428,83.991z M455.428,81.281   c-0.696,0-1.271,0.527-1.332,1.211l2.039-0.875C455.979,81.377,455.751,81.281,455.428,81.281z"/>
	<path fill="#010101" d="M460.443,86.762v0.18c-0.012,0.552-0.312,0.888-0.791,0.888c-0.48,0-0.804-0.348-0.804-0.888v-0.18v-5.973   c0-0.384,0.024-0.539,0.12-0.695c0.119-0.216,0.359-0.336,0.647-0.336c0.384,0,0.624,0.18,0.755,0.575   c0.516-0.443,0.973-0.611,1.632-0.611c1.595,0,2.771,1.26,2.771,2.963c0,1.679-1.176,2.95-2.734,2.95   c-0.624,0-1.104-0.168-1.596-0.563V86.762z M463.105,82.696c0-0.768-0.6-1.367-1.354-1.367c-0.743,0-1.343,0.6-1.343,1.355   c0,0.743,0.611,1.343,1.343,1.343C462.494,84.027,463.105,83.428,463.105,82.696z"/>
	<path fill="#010101" d="M465.82,78.582v-0.18c0.012-0.539,0.324-0.888,0.803-0.888c0.48,0,0.793,0.36,0.793,0.888v0.108v6.021   v0.107c0.012,0.601-0.289,0.96-0.793,0.96c-0.479,0-0.803-0.359-0.803-0.888v-0.18V78.582z"/>
	<path fill="#010101" d="M474.422,82.696c0,1.607-1.344,2.938-2.975,2.938s-2.986-1.319-2.986-2.902   c0-1.691,1.318-3.011,2.998-3.011C473.102,79.722,474.422,81.041,474.422,82.696z M470.092,82.708c0,0.708,0.611,1.308,1.355,1.308   c0.743,0,1.355-0.6,1.355-1.344c0-0.755-0.6-1.354-1.344-1.354C470.68,81.317,470.092,81.917,470.092,82.708z"/>
	<path fill="#010101" d="M478.694,80.525l0.072-0.18c0.18-0.396,0.444-0.588,0.804-0.588c0.432,0,0.827,0.372,0.827,0.792   c0,0.18-0.048,0.335-0.192,0.635l-2.29,4.822c-0.216,0.455-0.312,0.611-0.479,0.827c-0.313,0.396-0.84,0.647-1.344,0.647   c-0.768,0-1.415-0.479-1.415-1.043c0-0.42,0.323-0.78,0.708-0.78c0.107,0,0.215,0.013,0.336,0.048l0.228,0.061   c0.084,0.023,0.167,0.036,0.239,0.036c0.18,0,0.348-0.168,0.469-0.479l0.168-0.433L475,81.149l-0.084-0.156   c-0.071-0.168-0.119-0.336-0.119-0.479c0-0.408,0.384-0.756,0.803-0.756c0.349,0,0.6,0.18,0.768,0.552l0.072,0.156l1.176,2.603   L478.694,80.525z"/>
</g>
<g transform="translate(-0.5 -0.5)">
	<g enable-background="new    ">
		<path fill="#010101" d="M115.776,55.727v0.204c0,0.623-0.36,1.031-0.912,1.031s-0.923-0.42-0.923-1.031v-0.204V50.03v-0.203    c0.012-0.624,0.372-1.02,0.923-1.02s0.912,0.407,0.912,1.02v0.203V55.727z"/>
		<path fill="#010101" d="M120.899,54.06c0-0.479-0.024-0.624-0.108-0.828c-0.144-0.323-0.504-0.551-0.876-0.551    c-0.551,0-0.971,0.455-0.971,1.031v0.3v1.883v0.18c-0.012,0.54-0.324,0.888-0.804,0.888c-0.468,0-0.792-0.359-0.792-0.888v-0.18    v-2.027c0-0.779,0.168-1.319,0.563-1.822c0.48-0.6,1.224-0.96,1.991-0.96c0.888,0,1.763,0.492,2.243,1.271    c0.228,0.372,0.348,0.924,0.348,1.56v1.979v0.18c-0.012,0.54-0.324,0.888-0.792,0.888c-0.479,0-0.803-0.359-0.803-0.888v-0.18    V54.06z"/>
		<path fill="#010101" d="M125.496,58.125v0.18c-0.012,0.552-0.312,0.888-0.792,0.888c-0.479,0-0.803-0.348-0.803-0.888v-0.18    v-5.973c0-0.384,0.024-0.539,0.12-0.695c0.12-0.216,0.36-0.336,0.648-0.336c0.384,0,0.624,0.18,0.755,0.575    c0.516-0.443,0.972-0.611,1.631-0.611c1.595,0,2.771,1.26,2.771,2.963c0,1.679-1.175,2.95-2.735,2.95    c-0.624,0-1.103-0.168-1.595-0.563V58.125z M128.158,54.06c0-0.768-0.6-1.367-1.355-1.367c-0.744,0-1.343,0.6-1.343,1.355    c0,0.743,0.612,1.343,1.343,1.343C127.547,55.391,128.158,54.792,128.158,54.06z"/>
		<path fill="#010101" d="M132.432,54.024c0,0.479,0.024,0.624,0.108,0.815c0.144,0.324,0.504,0.563,0.875,0.563    c0.552,0,0.972-0.455,0.972-1.031v-0.3v-1.883v-0.18c0.012-0.54,0.324-0.888,0.803-0.888c0.468,0,0.792,0.359,0.792,0.888v0.18    v2.015c0,0.78-0.167,1.331-0.563,1.823c-0.48,0.611-1.223,0.972-1.991,0.972c-0.888,0-1.763-0.492-2.243-1.271    c-0.228-0.372-0.348-0.936-0.348-1.56v-1.979v-0.18c0.012-0.54,0.312-0.888,0.792-0.888c0.48,0,0.804,0.359,0.804,0.888v0.18    V54.024z"/>
		<path fill="#010101" d="M137.665,50.354v-0.18c0.012-0.552,0.324-0.888,0.803-0.888c0.468,0,0.792,0.359,0.792,0.888v0.18v0.852    h0.18h0.168c0.479,0.012,0.792,0.288,0.792,0.72c0,0.42-0.324,0.72-0.792,0.72h-0.168h-0.18v3.25v0.18    c-0.012,0.54-0.324,0.888-0.804,0.888c-0.468,0-0.792-0.359-0.792-0.888v-0.18v-3.25c-0.036,0-0.06,0-0.084,0    c-0.516,0-0.828-0.276-0.828-0.72c0-0.479,0.324-0.731,0.912-0.72V50.354z"/>
	</g>
</g>
<path pointer-events="all" fill="none" stroke="#010101" stroke-width="2" stroke-linejoin="round" stroke-miterlimit="10" d="  M110,88V78h20V67.5L149,83l-19,15.5V88H110z"/>
<path pointer-events="all" fill="none" stroke="#010101" stroke-width="2" stroke-linejoin="round" stroke-miterlimit="10" d="  M149,187.5v10h-20V208l-19-15.5l19-15.5v10.5H149z"/>
<path pointer-events="all" fill="#FFFFFF" stroke="#010101" stroke-width="2" stroke-linejoin="round" stroke-miterlimit="10" d="  M289,138.5V149l-19-15.5l19-15.5v10.5h101V118l19,15.5L390,149v-10.5H289z"/>
<rect x="189.5" y="23.5" pointer-events="all" fill="none" width="90" height="20"/>
<g transform="translate(-0.5 -0.5)">
	<g enable-background="new    ">
		<path fill="#010101" d="M221.525,34.352c0.192-0.684,0.456-0.947,0.959-0.947c0.504,0,0.924,0.396,0.924,0.888    c0,0.132-0.024,0.275-0.072,0.408l-0.06,0.191l-1.907,5.973c-0.156,0.479-0.444,0.72-0.875,0.72c-0.396,0-0.72-0.24-0.863-0.636    l-1.487-4.21l-1.463,4.21c-0.132,0.396-0.468,0.636-0.875,0.636c-0.456,0-0.708-0.204-0.875-0.72l-1.943-5.937l-0.06-0.192    c-0.048-0.144-0.06-0.287-0.06-0.419c0-0.468,0.408-0.864,0.9-0.864c0.492,0,0.743,0.24,0.947,0.924l1.151,3.766l1.343-4.065    c0.12-0.384,0.479-0.636,0.923-0.636c0.408,0,0.756,0.216,0.875,0.552l1.416,4.149L221.525,34.352z"/>
		<path fill="#010101" d="M226.04,34.436c0,0.528-0.432,0.96-0.971,0.96c-0.516,0-0.959-0.432-0.959-0.936    c0-0.552,0.432-0.972,0.983-0.972C225.621,33.489,226.04,33.909,226.04,34.436z M225.896,40.517v0.18    c-0.012,0.54-0.324,0.888-0.792,0.888c-0.48,0-0.804-0.359-0.804-0.888v-0.18v-3.706v-0.18c0.012-0.54,0.324-0.888,0.792-0.888    c0.479,0,0.804,0.359,0.804,0.888v0.18V40.517z"/>
		<path fill="#010101" d="M230.828,38.682c0-0.479-0.024-0.624-0.108-0.828c-0.144-0.323-0.504-0.551-0.876-0.551    c-0.551,0-0.971,0.455-0.971,1.031v0.3v1.883v0.18c-0.012,0.54-0.324,0.888-0.804,0.888c-0.468,0-0.792-0.359-0.792-0.888v-0.18    V38.49c0-0.779,0.168-1.319,0.563-1.822c0.48-0.6,1.224-0.96,1.991-0.96c0.888,0,1.763,0.492,2.243,1.271    c0.228,0.372,0.348,0.924,0.348,1.56v1.979v0.18c-0.012,0.54-0.324,0.888-0.792,0.888c-0.479,0-0.803-0.359-0.803-0.888v-0.18    V38.682z"/>
		<path fill="#010101" d="M235.604,33.033l0.048-0.167c0.12-0.42,0.372-0.636,0.732-0.636c0.408,0,0.731,0.312,0.731,0.719    c0,0.084-0.012,0.204-0.036,0.3l-0.024,0.084l-2.327,8.695l-0.048,0.181c-0.12,0.407-0.372,0.623-0.744,0.623    c-0.408,0-0.731-0.312-0.731-0.72c0-0.084,0.024-0.203,0.048-0.287l0.048-0.168L235.604,33.033z"/>
		<path fill="#010101" d="M239.936,36.667h1.871h0.168c0.516,0.012,0.852,0.3,0.852,0.755c0,0.456-0.348,0.768-0.852,0.768h-0.168    h-1.871v1.632h2.435h0.192c0.564,0.012,0.936,0.335,0.936,0.839s-0.384,0.84-0.936,0.84h-0.192h-2.986h-0.216    c-0.696-0.012-1.067-0.384-1.067-1.067v-0.216v-5.434v-0.216c0.012-0.695,0.384-1.067,1.067-1.067h0.216h2.926h0.192    c0.563,0.013,0.923,0.336,0.923,0.84s-0.372,0.84-0.923,0.84h-0.192h-2.375V36.667z"/>
		<path fill="#010101" d="M248.539,38.526h-0.18c-0.576-0.012-0.936-0.336-0.936-0.839c0-0.492,0.372-0.84,0.936-0.84h0.18h1.631    h0.204c0.696,0.012,1.067,0.384,1.067,1.067v0.216v0.995c0,0.516-0.18,0.996-0.492,1.367c-0.563,0.66-1.703,1.128-2.771,1.128    c-2.279,0-4.162-1.871-4.162-4.126c0-2.278,1.847-4.113,4.138-4.113c0.768,0,1.547,0.228,2.207,0.647    c0.444,0.288,0.612,0.539,0.612,0.911c0,0.504-0.396,0.899-0.899,0.899c-0.24,0-0.24,0-0.731-0.312    c-0.324-0.216-0.768-0.348-1.176-0.348c-1.271,0-2.314,1.056-2.314,2.314c0,1.319,1.091,2.351,2.507,2.351    c0.6,0,1.043-0.204,1.211-0.552c0.072-0.144,0.096-0.336,0.096-0.636c0-0.036,0-0.071,0-0.132H248.539z"/>
		<path fill="#010101" d="M256.831,39.822h0.192c0.563,0.012,0.923,0.335,0.923,0.839s-0.372,0.84-0.923,0.84h-0.192h-2.747h-0.216    c-0.695-0.012-1.067-0.384-1.067-1.067v-0.216v-5.565v-0.203c0.012-0.624,0.372-1.02,0.923-1.02c0.552,0,0.912,0.407,0.912,1.02    v0.203v5.17H256.831z"/>
		<path fill="#010101" d="M265.723,33.381c0.972,0,1.835,0.323,2.615,0.959c0.468,0.384,0.647,0.66,0.647,1.02    c0,0.492-0.396,0.888-0.899,0.888c-0.252,0-0.444-0.084-0.671-0.288l-0.192-0.18c-0.396-0.36-0.959-0.576-1.511-0.576    c-1.259,0-2.279,1.044-2.279,2.303c0,1.26,1.043,2.291,2.303,2.291c0.504,0,1.104-0.204,1.415-0.491l0.324-0.3    c0.216-0.204,0.432-0.288,0.684-0.288c0.492,0,0.899,0.407,0.899,0.899c0,0.275-0.132,0.516-0.432,0.815    c-0.731,0.731-1.835,1.188-2.89,1.188c-2.267,0-4.138-1.871-4.138-4.126C261.597,35.228,263.456,33.381,265.723,33.381z"/>
		<path fill="#010101" d="M269.937,34.568v-0.18c0.012-0.539,0.324-0.888,0.803-0.888c0.48,0,0.792,0.36,0.792,0.888v0.108v6.021    v0.107c0.012,0.601-0.288,0.96-0.792,0.96c-0.479,0-0.803-0.359-0.803-0.888v-0.18V34.568z"/>
		<path fill="#010101" d="M274.735,34.436c0,0.528-0.432,0.96-0.971,0.96c-0.516,0-0.959-0.432-0.959-0.936    c0-0.552,0.432-0.972,0.983-0.972C274.316,33.489,274.735,33.909,274.735,34.436z M274.592,40.517v0.18    c-0.012,0.54-0.324,0.888-0.792,0.888c-0.48,0-0.804-0.359-0.804-0.888v-0.18v-3.706v-0.18c0.012-0.54,0.324-0.888,0.792-0.888    c0.479,0,0.804,0.359,0.804,0.888v0.18V40.517z"/>
		<path fill="#010101" d="M278.588,39.977c0.323,0,0.6-0.096,0.923-0.336c0.192-0.144,0.323-0.191,0.504-0.191    c0.456,0,0.804,0.348,0.804,0.791c0,0.336-0.18,0.601-0.6,0.888c-0.444,0.313-1.056,0.492-1.631,0.492    c-1.607,0-2.975-1.367-2.975-2.975c0-1.595,1.343-2.938,2.926-2.938c1.295,0,2.507,0.947,2.507,1.991    c0,0.348-0.18,0.563-0.659,0.779l-2.663,1.176C277.988,39.881,278.239,39.977,278.588,39.977z M278.588,37.267    c-0.696,0-1.271,0.527-1.332,1.211l2.039-0.875C279.139,37.363,278.911,37.267,278.588,37.267z"/>
		<path fill="#010101" d="M285.523,38.682c0-0.479-0.025-0.624-0.108-0.828c-0.144-0.323-0.504-0.551-0.876-0.551    c-0.551,0-0.971,0.455-0.971,1.031v0.3v1.883v0.18c-0.013,0.54-0.324,0.888-0.805,0.888c-0.467,0-0.791-0.359-0.791-0.888v-0.18    V38.49c0-0.779,0.168-1.319,0.563-1.822c0.479-0.6,1.224-0.96,1.991-0.96c0.888,0,1.764,0.492,2.242,1.271    c0.229,0.372,0.348,0.924,0.348,1.56v1.979v0.18c-0.012,0.54-0.323,0.888-0.791,0.888c-0.479,0-0.803-0.359-0.803-0.888v-0.18    V38.682z"/>
		<path fill="#010101" d="M288.801,34.976v-0.18c0.012-0.552,0.324-0.888,0.803-0.888c0.469,0,0.792,0.359,0.792,0.888v0.18v0.852    h0.181h0.168c0.479,0.012,0.791,0.288,0.791,0.72c0,0.42-0.324,0.72-0.791,0.72h-0.168h-0.181v3.25v0.18    c-0.012,0.54-0.323,0.888-0.804,0.888c-0.467,0-0.791-0.359-0.791-0.888v-0.18v-3.25c-0.036,0-0.061,0-0.084,0    c-0.516,0-0.828-0.276-0.828-0.72c0-0.479,0.324-0.731,0.912-0.72V34.976z"/>
	</g>
</g>
<rect x="409.5" y="23.5" pointer-events="all" fill="none" width="100" height="20"/>
<g transform="translate(-0.5 -0.5)">
	<g enable-background="new    ">
		<path fill="#010101" d="M431.959,36.595v-1.943v-0.203c0-0.624,0.359-1.02,0.911-1.02s0.923,0.407,0.923,1.02v0.203v5.697v0.204    c-0.023,0.623-0.371,1.031-0.923,1.031s-0.911-0.42-0.911-1.031v-0.204v-2.075h-2.986v2.075v0.204c0,0.623-0.36,1.031-0.912,1.031    s-0.924-0.42-0.924-1.031v-0.204v-5.697v-0.203c0.013-0.624,0.372-1.02,0.924-1.02s0.912,0.407,0.912,1.02v0.203v1.943H431.959z"/>
		<path fill="#010101" d="M438.932,40.349v0.204c-0.012,0.623-0.372,1.031-0.924,1.031c-0.539,0-0.911-0.42-0.911-1.031v-0.204    V35.18h-1.308h-0.18c-0.576-0.012-0.936-0.336-0.936-0.84c0-0.491,0.371-0.84,0.936-0.84h0.18h4.438h0.191    c0.564,0.013,0.936,0.336,0.936,0.84s-0.383,0.84-0.936,0.84h-0.191h-1.295V40.349z"/>
		<path fill="#010101" d="M445.615,40.349v0.204c-0.012,0.623-0.372,1.031-0.924,1.031c-0.539,0-0.911-0.42-0.911-1.031v-0.204    V35.18h-1.308h-0.18c-0.576-0.012-0.936-0.336-0.936-0.84c0-0.491,0.371-0.84,0.936-0.84h0.18h4.438h0.191    c0.564,0.013,0.936,0.336,0.936,0.84s-0.383,0.84-0.936,0.84h-0.191h-1.295V40.349z"/>
		<path fill="#010101" d="M450.764,40.349v0.204c-0.012,0.623-0.371,1.031-0.924,1.031c-0.551,0-0.91-0.42-0.91-1.031v-0.204v-5.565    v-0.216c0-0.695,0.371-1.067,1.055-1.067h0.216h1.355c0.312,0,0.72,0.061,1.104,0.145c0.72,0.168,1.271,0.563,1.679,1.223    c0.288,0.48,0.456,1.044,0.456,1.584c0,1.091-0.647,2.122-1.632,2.603c-0.432,0.203-0.791,0.275-1.511,0.275h-0.888V40.349z     M451.483,37.651c0.54,0,0.708-0.024,0.924-0.156c0.372-0.204,0.611-0.611,0.611-1.031c0-0.444-0.288-0.899-0.684-1.092    c-0.155-0.071-0.468-0.12-0.852-0.12h-0.72v2.399H451.483z"/>
		<path fill="#010101" d="M460.208,40.133l-0.252,0.588l-0.071,0.18c-0.205,0.443-0.492,0.647-0.9,0.647    c-0.491,0-0.924-0.396-0.924-0.875c0-0.156,0.049-0.336,0.133-0.517l0.084-0.18l2.65-5.937c0.168-0.372,0.468-0.563,0.875-0.563    c0.385,0,0.721,0.204,0.876,0.563l2.723,5.913c0.18,0.384,0.204,0.504,0.204,0.72c0,0.479-0.432,0.887-0.924,0.887    c-0.408,0-0.707-0.216-0.899-0.636l-0.084-0.191l-0.276-0.6H460.208z M461.815,36.248l-0.948,2.303h1.92L461.815,36.248z"/>
		<path fill="#010101" d="M467.924,42.748v0.18c-0.012,0.552-0.313,0.888-0.792,0.888s-0.804-0.348-0.804-0.888v-0.18v-5.973    c0-0.384,0.024-0.539,0.12-0.695c0.12-0.216,0.36-0.336,0.647-0.336c0.385,0,0.624,0.18,0.756,0.575    c0.516-0.443,0.972-0.611,1.631-0.611c1.596,0,2.771,1.26,2.771,2.963c0,1.679-1.176,2.95-2.735,2.95    c-0.624,0-1.103-0.168-1.595-0.563V42.748z M470.586,38.682c0-0.768-0.6-1.367-1.355-1.367c-0.743,0-1.343,0.6-1.343,1.355    c0,0.743,0.612,1.343,1.343,1.343C469.975,40.013,470.586,39.414,470.586,38.682z"/>
		<path fill="#010101" d="M474.896,42.748v0.18c-0.013,0.552-0.313,0.888-0.793,0.888c-0.479,0-0.803-0.348-0.803-0.888v-0.18    v-5.973c0-0.384,0.023-0.539,0.119-0.695c0.121-0.216,0.36-0.336,0.648-0.336c0.384,0,0.623,0.18,0.756,0.575    c0.516-0.443,0.971-0.611,1.631-0.611c1.595,0,2.771,1.26,2.771,2.963c0,1.679-1.176,2.95-2.735,2.95    c-0.623,0-1.103-0.168-1.594-0.563V42.748z M477.559,38.682c0-0.768-0.6-1.367-1.355-1.367c-0.744,0-1.344,0.6-1.344,1.355    c0,0.743,0.612,1.343,1.344,1.343C476.947,40.013,477.559,39.414,477.559,38.682z"/>
		<path fill="#010101" d="M484.17,36.823c0,0.372-0.336,0.708-0.719,0.708c-0.205,0-0.385-0.06-0.684-0.24    c-0.385-0.216-0.492-0.275-0.66-0.275s-0.3,0.132-0.3,0.275c0,0.264,0.228,0.396,0.96,0.588c0.539,0.144,0.779,0.228,1.031,0.36    c0.491,0.275,0.779,0.791,0.779,1.391c0,1.176-0.947,1.991-2.303,1.991c-1.248,0-2.398-0.756-2.398-1.571    c0-0.432,0.336-0.815,0.731-0.815c0.264,0,0.516,0.132,0.839,0.407c0.469,0.408,0.637,0.492,0.947,0.492    c0.313,0,0.553-0.18,0.553-0.42c0-0.204-0.156-0.324-0.528-0.407c-0.443-0.108-1.043-0.313-1.379-0.468    c-0.528-0.265-0.876-0.828-0.876-1.416c0-0.671,0.444-1.295,1.128-1.57c0.251-0.097,0.575-0.156,0.972-0.156    C483.283,35.696,484.17,36.223,484.17,36.823z"/>
		<path fill="#010101" d="M488.203,39.977c0.324,0,0.6-0.096,0.924-0.336c0.191-0.144,0.323-0.191,0.504-0.191    c0.455,0,0.803,0.348,0.803,0.791c0,0.336-0.18,0.601-0.6,0.888c-0.443,0.313-1.055,0.492-1.631,0.492    c-1.607,0-2.975-1.367-2.975-2.975c0-1.595,1.344-2.938,2.926-2.938c1.296,0,2.508,0.947,2.508,1.991    c0,0.348-0.18,0.563-0.66,0.779l-2.662,1.176C487.604,39.881,487.855,39.977,488.203,39.977z M488.203,37.267    c-0.695,0-1.271,0.527-1.332,1.211l2.039-0.875C488.755,37.363,488.527,37.267,488.203,37.267z"/>
		<path fill="#010101" d="M494.383,35.708c0.564,0,1.031,0.444,1.031,0.983c0,0.528-0.432,0.947-0.959,0.947    c-0.229,0-0.264-0.023-0.576-0.203c-0.119-0.072-0.216-0.108-0.312-0.108c-0.252,0-0.348,0.204-0.348,0.731v2.459v0.18    c-0.013,0.54-0.312,0.888-0.792,0.888c-0.479,0-0.803-0.359-0.803-0.888v-0.18v-3.61c0-0.468,0.012-0.575,0.107-0.743    c0.156-0.276,0.396-0.42,0.684-0.42c0.324,0,0.576,0.168,0.731,0.468C493.52,35.887,493.951,35.708,494.383,35.708z"/>
		<path fill="#010101" d="M499.423,36.452c0.239-0.552,0.432-0.708,0.827-0.708c0.432,0,0.792,0.336,0.792,0.743    c0,0.145-0.036,0.3-0.108,0.444l-0.072,0.168l-1.774,3.897c-0.18,0.408-0.42,0.588-0.792,0.588c-0.383,0-0.588-0.156-0.791-0.588    l-1.823-3.886l-0.071-0.156c-0.072-0.168-0.108-0.323-0.108-0.468c0-0.407,0.36-0.743,0.779-0.743c0.42,0,0.601,0.156,0.852,0.708    l1.151,2.65L499.423,36.452z"/>
		<path fill="#010101" d="M504.379,39.977c0.324,0,0.6-0.096,0.924-0.336c0.191-0.144,0.324-0.191,0.504-0.191    c0.455,0,0.803,0.348,0.803,0.791c0,0.336-0.18,0.601-0.6,0.888c-0.443,0.313-1.055,0.492-1.631,0.492    c-1.607,0-2.975-1.367-2.975-2.975c0-1.595,1.344-2.938,2.927-2.938c1.296,0,2.507,0.947,2.507,1.991    c0,0.348-0.18,0.563-0.66,0.779l-2.662,1.176C503.779,39.881,504.031,39.977,504.379,39.977z M504.379,37.267    c-0.695,0-1.271,0.527-1.331,1.211l2.039-0.875C504.932,37.363,504.703,37.267,504.379,37.267z"/>
		<path fill="#010101" d="M510.559,35.708c0.564,0,1.032,0.444,1.032,0.983c0,0.528-0.433,0.947-0.96,0.947    c-0.228,0-0.264-0.023-0.575-0.203c-0.12-0.072-0.216-0.108-0.312-0.108c-0.252,0-0.348,0.204-0.348,0.731v2.459v0.18    c-0.013,0.54-0.313,0.888-0.793,0.888c-0.479,0-0.803-0.359-0.803-0.888v-0.18v-3.61c0-0.468,0.012-0.575,0.107-0.743    c0.156-0.276,0.396-0.42,0.684-0.42c0.324,0,0.576,0.168,0.732,0.468C509.695,35.887,510.127,35.708,510.559,35.708z"/>
	</g>
</g>
<rect x="329.5" y="103.5" pointer-events="all" fill="none" width="40" height="20"/>
<g transform="translate(-0.5 -0.5)">
	<g enable-background="new    ">
		<path fill="#010101" d="M339.531,112.595v-1.943v-0.203c0-0.624,0.36-1.02,0.912-1.02s0.924,0.407,0.924,1.02v0.203v5.697v0.204    c-0.024,0.623-0.372,1.031-0.924,1.031s-0.912-0.42-0.912-1.031v-0.204v-2.075h-2.986v2.075v0.204    c0,0.623-0.359,1.031-0.911,1.031s-0.923-0.42-0.923-1.031v-0.204v-5.697v-0.203c0.012-0.624,0.371-1.02,0.923-1.02    s0.911,0.407,0.911,1.02v0.203v1.943H339.531z"/>
		<path fill="#010101" d="M346.505,116.349v0.204c-0.013,0.623-0.372,1.031-0.924,1.031c-0.54,0-0.911-0.42-0.911-1.031v-0.204    v-5.169h-1.308h-0.18c-0.575-0.012-0.936-0.336-0.936-0.84c0-0.491,0.372-0.84,0.936-0.84h0.18h4.438h0.192    c0.563,0.013,0.936,0.336,0.936,0.84s-0.385,0.84-0.936,0.84H347.8h-1.295V116.349z"/>
		<path fill="#010101" d="M353.188,116.349v0.204c-0.013,0.623-0.372,1.031-0.924,1.031c-0.54,0-0.911-0.42-0.911-1.031v-0.204    v-5.169h-1.308h-0.18c-0.575-0.012-0.936-0.336-0.936-0.84c0-0.491,0.372-0.84,0.936-0.84h0.18h4.438h0.192    c0.563,0.013,0.936,0.336,0.936,0.84s-0.385,0.84-0.936,0.84h-0.192h-1.295V116.349z"/>
		<path fill="#010101" d="M358.338,116.349v0.204c-0.013,0.623-0.373,1.031-0.924,1.031c-0.552,0-0.912-0.42-0.912-1.031v-0.204    v-5.565v-0.216c0-0.695,0.372-1.067,1.056-1.067h0.216h1.355c0.312,0,0.72,0.061,1.104,0.145c0.719,0.168,1.271,0.563,1.679,1.223    c0.288,0.48,0.456,1.044,0.456,1.584c0,1.091-0.648,2.122-1.631,2.603c-0.432,0.203-0.792,0.275-1.512,0.275h-0.887V116.349z     M359.057,113.651c0.54,0,0.708-0.024,0.924-0.156c0.371-0.204,0.611-0.611,0.611-1.031c0-0.444-0.287-0.899-0.684-1.092    c-0.156-0.071-0.468-0.12-0.852-0.12h-0.719v2.399H359.057z"/>
	</g>
</g>
<rect x="109.452" y="209.23" pointer-events="all" fill="none" width="40" height="20"/>
<g transform="translate(-0.5 -0.5)">
</g>
<rect x="109.452" y="229.23" pointer-events="all" fill="none" width="40" height="20"/>
<g transform="translate(-0.5 -0.5)">
	<g enable-background="new    ">
		<path fill="#010101" d="M121.864,220.348c0.779,0.742,1.211,1.785,1.211,2.902c0,2.254-1.859,4.102-4.125,4.102    c-2.291,0-4.138-1.836-4.138-4.115c0-2.277,1.835-4.125,4.114-4.125C119.98,219.111,121.048,219.566,121.864,220.348z     M116.634,223.25c0,1.258,1.043,2.289,2.315,2.289s2.291-1.02,2.291-2.289c0-1.271-1.031-2.316-2.291-2.316    S116.634,221.99,116.634,223.25z"/>
		<path fill="#010101" d="M125.754,228.479v0.18c-0.012,0.551-0.312,0.887-0.792,0.887c-0.479,0-0.803-0.348-0.803-0.887v-0.18    v-5.973c0-0.385,0.024-0.539,0.12-0.695c0.12-0.217,0.36-0.336,0.648-0.336c0.384,0,0.624,0.18,0.755,0.574    c0.516-0.443,0.972-0.611,1.631-0.611c1.595,0,2.771,1.26,2.771,2.963c0,1.68-1.175,2.951-2.735,2.951    c-0.624,0-1.103-0.168-1.595-0.564V228.479z M128.417,224.412c0-0.768-0.6-1.367-1.355-1.367c-0.744,0-1.343,0.6-1.343,1.355    c0,0.744,0.612,1.344,1.343,1.344C127.805,225.744,128.417,225.145,128.417,224.412z"/>
		<path fill="#010101" d="M133.71,225.707c0.324,0,0.6-0.096,0.923-0.336c0.192-0.143,0.324-0.191,0.504-0.191    c0.456,0,0.803,0.348,0.803,0.791c0,0.336-0.18,0.602-0.6,0.889c-0.444,0.313-1.055,0.492-1.631,0.492    c-1.607,0-2.975-1.367-2.975-2.975c0-1.596,1.343-2.939,2.926-2.939c1.295,0,2.507,0.947,2.507,1.992    c0,0.348-0.18,0.563-0.66,0.779l-2.663,1.176C133.11,225.611,133.362,225.707,133.71,225.707z M133.71,222.998    c-0.696,0-1.271,0.527-1.332,1.211l2.039-0.875C134.262,223.094,134.034,222.998,133.71,222.998z"/>
		<path fill="#010101" d="M140.646,224.412c0-0.479-0.024-0.623-0.108-0.828c-0.144-0.322-0.504-0.551-0.876-0.551    c-0.551,0-0.971,0.455-0.971,1.031v0.301v1.883v0.18c-0.012,0.539-0.324,0.887-0.804,0.887c-0.468,0-0.792-0.359-0.792-0.887    v-0.18v-2.027c0-0.779,0.168-1.32,0.563-1.822c0.48-0.6,1.224-0.961,1.991-0.961c0.888,0,1.763,0.492,2.243,1.271    c0.228,0.373,0.348,0.924,0.348,1.561v1.979v0.18c-0.012,0.539-0.324,0.887-0.792,0.887c-0.479,0-0.803-0.359-0.803-0.887v-0.18    V224.412z"/>
		<path fill="#010101" d="M119.333,238.656h-0.18c-0.575-0.012-0.935-0.336-0.935-0.838c0-0.492,0.372-0.84,0.935-0.84h0.18h1.631    h0.204c0.696,0.012,1.067,0.383,1.067,1.066v0.217v0.994c0,0.516-0.18,0.996-0.492,1.367c-0.563,0.66-1.703,1.129-2.771,1.129    c-2.279,0-4.162-1.871-4.162-4.127c0-2.277,1.847-4.113,4.138-4.113c0.768,0,1.547,0.229,2.207,0.648    c0.444,0.287,0.612,0.539,0.612,0.91c0,0.504-0.396,0.9-0.899,0.9c-0.24,0-0.24,0-0.731-0.313    c-0.324-0.215-0.768-0.348-1.175-0.348c-1.271,0-2.315,1.057-2.315,2.314c0,1.32,1.091,2.352,2.506,2.352    c0.6,0,1.043-0.205,1.211-0.553c0.072-0.143,0.096-0.336,0.096-0.635c0-0.037,0-0.072,0-0.133H119.333z"/>
		<path fill="#010101" d="M127.625,239.953h0.192c0.563,0.012,0.923,0.334,0.923,0.838s-0.372,0.84-0.923,0.84h-0.192h-2.747h-0.216    c-0.695-0.012-1.067-0.383-1.067-1.066v-0.217v-5.564v-0.203c0.012-0.625,0.372-1.02,0.923-1.02c0.552,0,0.912,0.406,0.912,1.02    v0.203v5.17H127.625z"/>
		<path fill="#010101" d="M131.406,233.164l0.048-0.168c0.12-0.42,0.372-0.635,0.732-0.635c0.408,0,0.731,0.311,0.731,0.719    c0,0.084-0.012,0.203-0.036,0.299l-0.024,0.084l-2.327,8.695l-0.048,0.182c-0.12,0.406-0.372,0.623-0.744,0.623    c-0.408,0-0.732-0.313-0.732-0.721c0-0.084,0.024-0.203,0.048-0.287l0.048-0.168L131.406,233.164z"/>
		<path fill="#010101" d="M135.162,240.264l-0.252,0.588l-0.072,0.18c-0.204,0.443-0.492,0.648-0.899,0.648    c-0.492,0-0.924-0.396-0.924-0.875c0-0.156,0.048-0.336,0.132-0.518l0.084-0.18l2.65-5.936c0.168-0.373,0.468-0.564,0.875-0.564    c0.384,0,0.72,0.205,0.875,0.564l2.723,5.912c0.18,0.385,0.204,0.504,0.204,0.721c0,0.479-0.432,0.887-0.923,0.887    c-0.408,0-0.708-0.217-0.899-0.637l-0.084-0.191l-0.276-0.6H135.162z M136.769,236.379l-0.947,2.303h1.919L136.769,236.379z"/>
		<path fill="#010101" d="M145.468,239.953h0.192c0.564,0.012,0.923,0.334,0.923,0.838s-0.372,0.84-0.923,0.84h-0.192h-2.747h-0.216    c-0.696-0.012-1.067-0.383-1.067-1.066v-0.217v-5.564v-0.203c0.012-0.625,0.372-1.02,0.923-1.02s0.912,0.406,0.912,1.02v0.203    v5.17H145.468z"/>
	</g>
</g>
<ellipse pointer-events="all" fill="#FFFFFF" stroke="#010101" stroke-width="2" cx="229.5" cy="223.5" rx="40" ry="40"/>
<g transform="translate(-0.5 -0.5)">
	<g enable-background="new    ">
		<path fill="#010101" d="M211.616,205.133l-0.252,0.588l-0.072,0.18c-0.204,0.443-0.492,0.648-0.899,0.648    c-0.492,0-0.924-0.396-0.924-0.875c0-0.156,0.048-0.336,0.132-0.518l0.084-0.18l2.65-5.936c0.168-0.373,0.468-0.564,0.875-0.564    c0.384,0,0.72,0.205,0.875,0.564l2.723,5.912c0.18,0.385,0.204,0.504,0.204,0.721c0,0.479-0.432,0.887-0.923,0.887    c-0.408,0-0.708-0.217-0.899-0.637l-0.084-0.191l-0.276-0.6H211.616z M213.224,201.248l-0.948,2.303h1.919L213.224,201.248z"/>
		<path fill="#010101" d="M221.635,201.822c0,0.373-0.336,0.709-0.72,0.709c-0.204,0-0.384-0.061-0.684-0.24    c-0.384-0.217-0.492-0.275-0.66-0.275s-0.3,0.131-0.3,0.275c0,0.264,0.228,0.396,0.959,0.588c0.54,0.143,0.779,0.227,1.031,0.359    c0.492,0.275,0.78,0.791,0.78,1.391c0,1.176-0.948,1.992-2.303,1.992c-1.248,0-2.399-0.756-2.399-1.572    c0-0.432,0.336-0.814,0.732-0.814c0.264,0,0.516,0.131,0.839,0.406c0.468,0.408,0.636,0.492,0.947,0.492    c0.312,0,0.552-0.18,0.552-0.42c0-0.203-0.156-0.324-0.528-0.406c-0.443-0.109-1.043-0.313-1.379-0.469    c-0.528-0.264-0.875-0.828-0.875-1.416c0-0.67,0.444-1.295,1.127-1.57c0.251-0.096,0.576-0.156,0.971-0.156    C220.748,200.695,221.635,201.223,221.635,201.822z"/>
		<path fill="#010101" d="M226.987,201.822c0,0.373-0.336,0.709-0.72,0.709c-0.204,0-0.384-0.061-0.684-0.24    c-0.384-0.217-0.492-0.275-0.66-0.275s-0.3,0.131-0.3,0.275c0,0.264,0.228,0.396,0.959,0.588c0.54,0.143,0.779,0.227,1.031,0.359    c0.492,0.275,0.78,0.791,0.78,1.391c0,1.176-0.948,1.992-2.303,1.992c-1.248,0-2.399-0.756-2.399-1.572    c0-0.432,0.336-0.814,0.732-0.814c0.264,0,0.516,0.131,0.839,0.406c0.468,0.408,0.636,0.492,0.947,0.492    c0.312,0,0.552-0.18,0.552-0.42c0-0.203-0.156-0.324-0.528-0.406c-0.443-0.109-1.043-0.313-1.379-0.469    c-0.528-0.264-0.875-0.828-0.875-1.416c0-0.67,0.444-1.295,1.127-1.57c0.251-0.096,0.576-0.156,0.971-0.156    C226.099,200.695,226.987,201.223,226.987,201.822z"/>
		<path fill="#010101" d="M231.02,204.977c0.324,0,0.6-0.096,0.923-0.336c0.192-0.143,0.324-0.191,0.504-0.191    c0.456,0,0.803,0.348,0.803,0.791c0,0.336-0.18,0.602-0.6,0.889c-0.444,0.313-1.055,0.492-1.631,0.492    c-1.607,0-2.975-1.367-2.975-2.975c0-1.596,1.343-2.939,2.926-2.939c1.295,0,2.507,0.947,2.507,1.992    c0,0.348-0.18,0.563-0.66,0.779l-2.663,1.176C230.42,204.881,230.671,204.977,231.02,204.977z M231.02,202.268    c-0.696,0-1.271,0.527-1.332,1.211l2.039-0.875C231.571,202.363,231.343,202.268,231.02,202.268z"/>
		<path fill="#010101" d="M234.717,199.977v-0.18c0.012-0.553,0.324-0.889,0.803-0.889c0.468,0,0.792,0.359,0.792,0.889v0.18v0.852    h0.18h0.168c0.479,0.012,0.792,0.287,0.792,0.719c0,0.42-0.324,0.721-0.792,0.721h-0.168h-0.18v3.25v0.18    c-0.012,0.539-0.324,0.887-0.803,0.887c-0.468,0-0.792-0.359-0.792-0.887v-0.18v-3.25c-0.036,0-0.06,0-0.084,0    c-0.516,0-0.828-0.277-0.828-0.721c0-0.479,0.324-0.73,0.912-0.719V199.977z"/>
		<path fill="#010101" d="M242.035,201.822c0,0.373-0.336,0.709-0.72,0.709c-0.204,0-0.384-0.061-0.684-0.24    c-0.384-0.217-0.492-0.275-0.66-0.275s-0.3,0.131-0.3,0.275c0,0.264,0.228,0.396,0.959,0.588c0.54,0.143,0.779,0.227,1.031,0.359    c0.492,0.275,0.78,0.791,0.78,1.391c0,1.176-0.948,1.992-2.303,1.992c-1.248,0-2.399-0.756-2.399-1.572    c0-0.432,0.336-0.814,0.731-0.814c0.264,0,0.516,0.131,0.84,0.406c0.468,0.408,0.636,0.492,0.947,0.492    c0.312,0,0.552-0.18,0.552-0.42c0-0.203-0.156-0.324-0.528-0.406c-0.443-0.109-1.043-0.313-1.379-0.469    c-0.528-0.264-0.875-0.828-0.875-1.416c0-0.67,0.443-1.295,1.127-1.57c0.251-0.096,0.576-0.156,0.971-0.156    C241.147,200.695,242.035,201.223,242.035,201.822z"/>
		<path fill="#010101" d="M243.417,202.818c0-0.576,0.456-1.031,1.032-1.031s1.043,0.455,1.043,1.031s-0.468,1.043-1.043,1.043    S243.417,203.395,243.417,202.818z M243.417,205.576c0-0.574,0.456-1.031,1.032-1.031s1.043,0.457,1.043,1.031    c0,0.576-0.468,1.045-1.043,1.045S243.417,206.152,243.417,205.576z"/>
		<path fill="#010101" d="M210.129,219.977c0-0.574,0.456-1.031,1.032-1.031s1.043,0.457,1.043,1.031    c0,0.576-0.468,1.045-1.043,1.045S210.129,220.553,210.129,219.977z"/>
		<path fill="#010101" d="M217.495,213.969v-0.18c0.012-0.539,0.324-0.889,0.792-0.889c0.48,0,0.804,0.361,0.804,0.889v0.18v5.973    c0,0.383-0.024,0.539-0.12,0.695c-0.12,0.229-0.359,0.348-0.647,0.348c-0.384,0-0.612-0.18-0.755-0.576    c-0.516,0.445-0.972,0.613-1.631,0.613c-1.595,0-2.771-1.26-2.771-2.963c0-1.68,1.175-2.951,2.734-2.951    c0.624,0,1.104,0.168,1.595,0.553V213.969z M214.832,218.047c0,0.756,0.6,1.367,1.355,1.367c0.744,0,1.343-0.611,1.343-1.355    s-0.612-1.344-1.343-1.344C215.444,216.715,214.832,217.314,214.832,218.047z"/>
		<path fill="#010101" d="M222.104,221.01c-1.115,0-1.979-0.9-1.979-2.053c0-1.186,0.911-2.098,2.086-2.098    c0.396,0,0.756,0.107,1.188,0.336c0-0.588-0.204-0.805-0.708-0.805c-0.108,0-0.288,0.025-0.432,0.061l-0.384,0.107    c-0.228,0.072-0.36,0.096-0.492,0.096c-0.372,0-0.624-0.264-0.624-0.635c0-0.623,0.78-1.031,1.907-1.031    c0.779,0,1.463,0.229,1.871,0.635c0.359,0.373,0.503,0.912,0.492,1.836v0.42v1.822v0.217c0,0.406-0.036,0.563-0.18,0.756    c-0.156,0.203-0.384,0.311-0.647,0.311c-0.336,0-0.564-0.143-0.744-0.492C222.992,220.854,222.584,221.01,222.104,221.01z     M222.608,218.082c-0.432,0-0.78,0.359-0.78,0.805c0,0.455,0.348,0.803,0.804,0.803c0.444,0,0.768-0.336,0.768-0.779    C223.399,218.441,223.063,218.082,222.608,218.082z"/>
		<path fill="#010101" d="M229.016,219.377c0.324,0,0.6-0.096,0.923-0.336c0.192-0.143,0.324-0.191,0.504-0.191    c0.456,0,0.803,0.348,0.803,0.791c0,0.336-0.18,0.602-0.6,0.889c-0.444,0.313-1.055,0.492-1.631,0.492    c-1.607,0-2.975-1.367-2.975-2.975c0-1.596,1.343-2.939,2.926-2.939c1.295,0,2.507,0.947,2.507,1.992    c0,0.348-0.18,0.563-0.66,0.779l-2.663,1.176C228.416,219.281,228.667,219.377,229.016,219.377z M229.016,216.668    c-0.696,0-1.271,0.527-1.332,1.211l2.039-0.875C229.567,216.764,229.339,216.668,229.016,216.668z"/>
		<path fill="#010101" d="M235.484,219.977c0-0.574,0.456-1.031,1.032-1.031s1.043,0.457,1.043,1.031    c0,0.576-0.468,1.045-1.043,1.045S235.484,220.553,235.484,219.977z"/>
		<path fill="#010101" d="M244.482,218.082c0,1.607-1.343,2.939-2.975,2.939c-1.631,0-2.986-1.32-2.986-2.902    c0-1.691,1.319-3.012,2.999-3.012C243.163,215.107,244.482,216.428,244.482,218.082z M240.152,218.094    c0,0.709,0.611,1.309,1.355,1.309s1.355-0.6,1.355-1.344c0-0.756-0.6-1.355-1.343-1.355    C240.74,216.703,240.152,217.303,240.152,218.094z"/>
		<path fill="#010101" d="M248.719,215.107c1.56,0,2.735,1.271,2.735,2.951c0,1.703-1.175,2.963-2.771,2.963    c-0.66,0-1.116-0.168-1.631-0.613c-0.132,0.396-0.372,0.576-0.755,0.576c-0.288,0-0.54-0.131-0.648-0.348    c-0.096-0.168-0.12-0.313-0.12-0.695v-5.973v-0.18c0.012-0.539,0.324-0.889,0.803-0.889c0.468,0,0.792,0.361,0.792,0.889v0.18    v1.691C247.616,215.275,248.095,215.107,248.719,215.107z M247.088,218.059c0,0.756,0.6,1.355,1.343,1.355    c0.755,0,1.355-0.611,1.355-1.367c0-0.732-0.611-1.332-1.355-1.332C247.7,216.715,247.088,217.314,247.088,218.059z"/>
		<path fill="#010101" d="M254.096,220.014v0.443c0,0.672,0,0.768-0.084,1.043c-0.204,0.779-0.936,1.404-1.655,1.404    c-0.552,0-0.936-0.336-0.936-0.805c0-0.275,0.12-0.49,0.384-0.658l0.312-0.205c0.264-0.168,0.384-0.539,0.384-1.139v-3.887v-0.18    c0.012-0.539,0.324-0.887,0.803-0.887c0.48,0,0.792,0.359,0.792,0.887v0.18V220.014z M254.3,213.836    c0,0.529-0.432,0.961-0.959,0.961s-0.959-0.432-0.959-0.936c0-0.553,0.42-0.973,0.972-0.973    C253.88,212.889,254.3,213.309,254.3,213.836z"/>
		<path fill="#010101" d="M210.129,234.377c0-0.576,0.456-1.031,1.032-1.031s1.043,0.455,1.043,1.031s-0.468,1.043-1.043,1.043    S210.129,234.953,210.129,234.377z"/>
		<path fill="#010101" d="M213.837,228.775v-0.18c0.012-0.551,0.324-0.887,0.803-0.887c0.468,0,0.792,0.359,0.792,0.887v0.18v0.852    h0.18h0.168c0.479,0.012,0.792,0.289,0.792,0.721c0,0.42-0.324,0.719-0.792,0.719h-0.168h-0.18v3.25v0.18    c-0.012,0.541-0.324,0.889-0.803,0.889c-0.468,0-0.792-0.359-0.792-0.889v-0.18v-3.25c-0.036,0-0.06,0-0.084,0    c-0.516,0-0.828-0.275-0.828-0.719c0-0.48,0.324-0.732,0.912-0.721V228.775z"/>
		<path fill="#010101" d="M221.623,229.543c0.24,0,0.479,0.121,0.624,0.324c0.12,0.168,0.156,0.313,0.156,0.648v3.922    c0,0.875-0.144,1.463-0.479,1.871c-0.528,0.646-1.368,1.02-2.315,1.02c-1.283,0-2.387-0.637-2.387-1.381    c0-0.432,0.336-0.779,0.768-0.779c0.24,0,0.384,0.061,0.731,0.313c0.372,0.252,0.6,0.348,0.959,0.348    c0.72,0,1.127-0.469,1.127-1.295c0-0.025,0-0.049,0-0.096c-0.468,0.336-0.887,0.479-1.439,0.479c-1.427,0-2.507-1.15-2.507-2.662    c0-1.547,1.08-2.746,2.483-2.746c0.6,0,1.031,0.145,1.571,0.539C221.047,229.723,221.311,229.543,221.623,229.543z     M218.541,232.205c0,0.66,0.516,1.176,1.164,1.176c0.647,0,1.163-0.516,1.163-1.162c0-0.648-0.516-1.176-1.163-1.176    C219.068,231.043,218.541,231.559,218.541,232.205z"/>
		<path fill="#010101" d="M225.38,235.408c-1.115,0-1.979-0.9-1.979-2.051c0-1.188,0.911-2.1,2.087-2.1    c0.396,0,0.755,0.109,1.187,0.336c0-0.588-0.204-0.803-0.708-0.803c-0.108,0-0.288,0.023-0.432,0.061l-0.384,0.107    c-0.228,0.072-0.36,0.096-0.492,0.096c-0.372,0-0.624-0.264-0.624-0.635c0-0.625,0.78-1.033,1.907-1.033    c0.779,0,1.463,0.229,1.871,0.637c0.36,0.371,0.503,0.912,0.492,1.834v0.42v1.824v0.215c0,0.408-0.036,0.564-0.18,0.756    c-0.156,0.203-0.384,0.313-0.647,0.313c-0.336,0-0.564-0.145-0.744-0.492C226.268,235.252,225.86,235.408,225.38,235.408z     M225.884,232.482c-0.432,0-0.779,0.359-0.779,0.803c0,0.455,0.348,0.805,0.803,0.805c0.444,0,0.768-0.336,0.768-0.781    C226.675,232.842,226.339,232.482,225.884,232.482z"/>
		<path fill="#010101" d="M232.761,234.377c0-0.576,0.456-1.031,1.032-1.031s1.043,0.455,1.043,1.031s-0.468,1.043-1.043,1.043    S232.761,234.953,232.761,234.377z"/>
		<path fill="#010101" d="M236.469,228.775v-0.18c0.012-0.551,0.324-0.887,0.803-0.887c0.468,0,0.792,0.359,0.792,0.887v0.18v0.852    h0.18h0.168c0.479,0.012,0.792,0.289,0.792,0.721c0,0.42-0.324,0.719-0.792,0.719h-0.168h-0.18v3.25v0.18    c-0.012,0.541-0.324,0.889-0.803,0.889c-0.468,0-0.792-0.359-0.792-0.889v-0.18v-3.25c-0.036,0-0.06,0-0.084,0    c-0.516,0-0.828-0.275-0.828-0.719c0-0.48,0.324-0.732,0.912-0.721V228.775z"/>
		<path fill="#010101" d="M240.165,228.775v-0.18c0.012-0.551,0.324-0.887,0.803-0.887c0.468,0,0.792,0.359,0.792,0.887v0.18v0.852    h0.18h0.168c0.479,0.012,0.792,0.289,0.792,0.721c0,0.42-0.324,0.719-0.792,0.719h-0.168h-0.18v3.25v0.18    c-0.012,0.541-0.324,0.889-0.804,0.889c-0.468,0-0.792-0.359-0.792-0.889v-0.18v-3.25c-0.036,0-0.06,0-0.084,0    c-0.516,0-0.828-0.275-0.828-0.719c0-0.48,0.324-0.732,0.912-0.721V228.775z"/>
		<path fill="#010101" d="M245.348,234.316v0.18c-0.012,0.541-0.324,0.889-0.803,0.889c-0.48,0-0.792-0.359-0.792-0.889v-0.18v-3.25    c-0.564-0.035-0.852-0.275-0.852-0.719c0-0.432,0.324-0.721,0.803-0.721c0,0,0.024,0,0.048,0v-0.143    c0.012-0.744,0.06-1.02,0.216-1.32c0.288-0.551,0.815-0.863,1.499-0.863c0.828,0,1.511,0.504,1.511,1.127    c0,0.443-0.336,0.816-0.731,0.816c-0.12,0-0.24-0.037-0.336-0.084l-0.168-0.096c-0.048-0.025-0.096-0.037-0.132-0.037    c-0.12,0-0.24,0.133-0.252,0.301c-0.012,0.072-0.012,0.107-0.012,0.299h0.288h0.156c0.492,0.012,0.804,0.289,0.804,0.721    c0,0.42-0.324,0.719-0.804,0.719h-0.156h-0.288V234.316z"/>
		<path fill="#010101" d="M210.129,248.777c0-0.576,0.456-1.031,1.032-1.031s1.043,0.455,1.043,1.031s-0.468,1.043-1.043,1.043    S210.129,249.354,210.129,248.777z"/>
		<path fill="#010101" d="M216.067,249.125c-0.204,0.504-0.384,0.66-0.792,0.66c-0.348,0-0.612-0.18-0.731-0.504l-0.048-0.156    l-1.451-3.922l-0.06-0.168c-0.048-0.133-0.072-0.264-0.072-0.383c0-0.408,0.36-0.744,0.78-0.744c0.36,0,0.636,0.215,0.768,0.623    l0.048,0.156l0.768,2.352l0.899-2.447c0.168-0.469,0.408-0.672,0.816-0.672c0.372,0,0.624,0.191,0.779,0.6l0.924,2.52l0.708-2.303    l0.048-0.182c0.144-0.42,0.42-0.646,0.792-0.646c0.432,0,0.804,0.348,0.804,0.779c0,0.119-0.024,0.252-0.072,0.383l-0.06,0.168    l-1.392,3.898c-0.18,0.48-0.384,0.648-0.779,0.648c-0.408,0-0.612-0.168-0.815-0.648l-0.948-2.363L216.067,249.125z"/>
		<path fill="#010101" d="M223.172,249.809c-1.115,0-1.979-0.9-1.979-2.051c0-1.188,0.911-2.1,2.087-2.1    c0.396,0,0.755,0.109,1.187,0.336c0-0.588-0.204-0.803-0.708-0.803c-0.108,0-0.288,0.023-0.432,0.061l-0.384,0.107    c-0.228,0.072-0.36,0.096-0.492,0.096c-0.372,0-0.624-0.264-0.624-0.635c0-0.625,0.78-1.033,1.907-1.033    c0.779,0,1.463,0.229,1.871,0.637c0.36,0.371,0.503,0.912,0.492,1.834v0.42v1.824v0.215c0,0.408-0.036,0.564-0.18,0.756    c-0.156,0.203-0.384,0.313-0.647,0.313c-0.336,0-0.564-0.145-0.744-0.492C224.06,249.652,223.652,249.809,223.172,249.809z     M223.676,246.883c-0.432,0-0.779,0.359-0.779,0.803c0,0.455,0.348,0.805,0.803,0.805c0.444,0,0.768-0.336,0.768-0.781    C224.467,247.242,224.131,246.883,223.676,246.883z"/>
		<path fill="#010101" d="M230.635,244.652c0.24-0.553,0.432-0.709,0.828-0.709c0.432,0,0.792,0.336,0.792,0.744    c0,0.145-0.036,0.299-0.108,0.443l-0.072,0.168l-1.775,3.898c-0.18,0.408-0.42,0.588-0.792,0.588    c-0.384,0-0.588-0.156-0.792-0.588l-1.823-3.887l-0.072-0.156c-0.072-0.168-0.108-0.322-0.108-0.467    c0-0.408,0.36-0.744,0.78-0.744c0.419,0,0.6,0.156,0.851,0.709l1.151,2.65L230.635,244.652z"/>
	</g>
</g>
<g transform="translate(-0.5 -0.5)">
	<g enable-background="new    ">
		<path fill="#010101" d="M118.079,160.516c0.779,0.742,1.211,1.785,1.211,2.902c0,2.254-1.859,4.102-4.125,4.102    c-2.291,0-4.138-1.836-4.138-4.115c0-2.277,1.835-4.125,4.114-4.125C116.196,159.279,117.263,159.734,118.079,160.516z     M112.85,163.418c0,1.258,1.043,2.289,2.315,2.289s2.291-1.02,2.291-2.289c0-1.271-1.031-2.316-2.291-2.316    S112.85,162.158,112.85,163.418z"/>
		<path fill="#010101" d="M121.934,164.545c0,0.479,0.024,0.623,0.108,0.814c0.144,0.324,0.504,0.564,0.875,0.564    c0.552,0,0.972-0.455,0.972-1.031v-0.301v-1.883v-0.18c0.012-0.539,0.324-0.887,0.803-0.887c0.468,0,0.792,0.359,0.792,0.887v0.18    v2.016c0,0.779-0.168,1.33-0.563,1.822c-0.48,0.611-1.223,0.973-1.991,0.973c-0.888,0-1.763-0.492-2.243-1.271    c-0.228-0.373-0.348-0.936-0.348-1.561v-1.979v-0.18c0.012-0.539,0.312-0.887,0.792-0.887c0.48,0,0.804,0.359,0.804,0.887v0.18    V164.545z"/>
		<path fill="#010101" d="M127.167,160.875v-0.18c0.012-0.553,0.324-0.889,0.803-0.889c0.468,0,0.792,0.359,0.792,0.889v0.18v0.852    h0.18h0.168c0.479,0.012,0.792,0.287,0.792,0.719c0,0.42-0.324,0.721-0.792,0.721h-0.168h-0.18v3.25v0.18    c-0.012,0.539-0.324,0.887-0.804,0.887c-0.468,0-0.792-0.359-0.792-0.887v-0.18v-3.25c-0.036,0-0.06,0-0.084,0    c-0.516,0-0.828-0.277-0.828-0.721c0-0.479,0.324-0.73,0.912-0.719V160.875z"/>
		<path fill="#010101" d="M132.182,168.646v0.18c-0.012,0.551-0.312,0.887-0.792,0.887c-0.479,0-0.803-0.348-0.803-0.887v-0.18    v-5.973c0-0.385,0.024-0.539,0.12-0.695c0.12-0.217,0.36-0.336,0.648-0.336c0.384,0,0.624,0.18,0.755,0.574    c0.516-0.443,0.972-0.611,1.631-0.611c1.595,0,2.771,1.26,2.771,2.963c0,1.68-1.175,2.951-2.735,2.951    c-0.624,0-1.103-0.168-1.595-0.564V168.646z M134.844,164.58c0-0.768-0.6-1.367-1.355-1.367c-0.744,0-1.343,0.6-1.343,1.355    c0,0.744,0.612,1.344,1.343,1.344C134.232,165.912,134.844,165.313,134.844,164.58z"/>
		<path fill="#010101" d="M139.118,164.545c0,0.479,0.024,0.623,0.108,0.814c0.144,0.324,0.504,0.564,0.875,0.564    c0.552,0,0.972-0.455,0.972-1.031v-0.301v-1.883v-0.18c0.012-0.539,0.324-0.887,0.803-0.887c0.468,0,0.792,0.359,0.792,0.887v0.18    v2.016c0,0.779-0.167,1.33-0.563,1.822c-0.48,0.611-1.223,0.973-1.991,0.973c-0.888,0-1.763-0.492-2.243-1.271    c-0.228-0.373-0.348-0.936-0.348-1.561v-1.979v-0.18c0.012-0.539,0.312-0.887,0.792-0.887c0.48,0,0.804,0.359,0.804,0.887v0.18    V164.545z"/>
		<path fill="#010101" d="M144.351,160.875v-0.18c0.012-0.553,0.324-0.889,0.803-0.889c0.468,0,0.792,0.359,0.792,0.889v0.18v0.852    h0.18h0.168c0.479,0.012,0.792,0.287,0.792,0.719c0,0.42-0.324,0.721-0.792,0.721h-0.168h-0.18v3.25v0.18    c-0.012,0.539-0.324,0.887-0.803,0.887c-0.468,0-0.792-0.359-0.792-0.887v-0.18v-3.25c-0.036,0-0.06,0-0.084,0    c-0.516,0-0.828-0.277-0.828-0.721c0-0.479,0.324-0.73,0.912-0.719V160.875z"/>
	</g>
</g>
<path pointer-events="all" fill="#FFFFFF" stroke="#010101" stroke-width="2" stroke-miterlimit="10" d="M189.5,113.5h80v34  c-13.333-7.2-26.667-7.2-40,0s-26.667,7.2-40,0v-28V113.5z"/>
<g transform="translate(-0.5 -0.5)">
	<g enable-background="new    ">
		<path fill="#010101" d="M218.807,130.577c0-0.575,0.456-1.031,1.032-1.031s1.043,0.456,1.043,1.031    c0,0.576-0.468,1.044-1.043,1.044S218.807,131.153,218.807,130.577z"/>
		<path fill="#010101" d="M224.817,129.977c0.324,0,0.6-0.096,0.923-0.336c0.192-0.144,0.324-0.191,0.504-0.191    c0.456,0,0.803,0.348,0.803,0.791c0,0.336-0.18,0.601-0.6,0.888c-0.444,0.313-1.055,0.492-1.631,0.492    c-1.607,0-2.975-1.367-2.975-2.975c0-1.595,1.343-2.938,2.926-2.938c1.295,0,2.507,0.947,2.507,1.991    c0,0.348-0.18,0.563-0.66,0.779l-2.663,1.176C224.218,129.881,224.469,129.977,224.817,129.977z M224.817,127.267    c-0.696,0-1.271,0.527-1.332,1.211l2.039-0.875C225.369,127.363,225.141,127.267,224.817,127.267z"/>
		<path fill="#010101" d="M231.405,126.223c0.312-0.371,0.516-0.491,0.803-0.491c0.444,0,0.828,0.384,0.828,0.839    c0,0.229-0.108,0.42-0.396,0.744l-1.127,1.224l1.283,1.499c0.288,0.323,0.372,0.504,0.372,0.731c0,0.443-0.372,0.827-0.815,0.827    c-0.288,0-0.492-0.132-0.804-0.516l-1.091-1.331l-1.139,1.355c-0.324,0.371-0.504,0.491-0.792,0.491    c-0.456,0-0.828-0.371-0.828-0.827c0-0.216,0.096-0.408,0.372-0.731l1.319-1.499l-1.08-1.296    c-0.264-0.323-0.348-0.504-0.348-0.743c0-0.42,0.372-0.768,0.828-0.768c0.288,0,0.456,0.107,0.768,0.479l0.899,1.104    L231.405,126.223z"/>
		<path fill="#010101" d="M236.578,129.977c0.324,0,0.6-0.096,0.923-0.336c0.192-0.144,0.324-0.191,0.504-0.191    c0.456,0,0.803,0.348,0.803,0.791c0,0.336-0.18,0.601-0.6,0.888c-0.444,0.313-1.055,0.492-1.631,0.492    c-1.607,0-2.975-1.367-2.975-2.975c0-1.595,1.343-2.938,2.926-2.938c1.295,0,2.507,0.947,2.507,1.991    c0,0.348-0.18,0.563-0.66,0.779l-2.663,1.176C235.978,129.881,236.229,129.977,236.578,129.977z M236.578,127.267    c-0.696,0-1.271,0.527-1.332,1.211l2.039-0.875C237.129,127.363,236.901,127.267,236.578,127.267z"/>
	</g>
</g>
<path pointer-events="all" fill="#FFFFFF" stroke="#010101" stroke-width="2" stroke-miterlimit="10" d="M189.5,154.5  c13.333,7.2,26.667,7.2,40,0s26.667-7.2,40,0v18c-13.333-7.2-26.667-7.2-40,0s-26.667,7.2-40,0V154.5z"/>
<path pointer-events="all" fill="#FFFFFF" stroke="#010101" stroke-width="2" stroke-miterlimit="10" d="M409.5,113.5h80v34  c-13.333-7.2-26.667-7.2-40,0c-13.334,7.2-26.666,7.2-40,0v-28V113.5z"/>
<g transform="translate(-0.5 -0.5)">
	<g enable-background="new    ">
		<path fill="#010101" d="M443.713,128.394c0,0.947-0.145,1.463-0.6,2.039c-0.6,0.779-1.428,1.188-2.398,1.188    c-1.644,0-3.023-1.331-3.023-2.902c0-0.612,0.372-1.031,0.912-1.031c0.468,0,0.852,0.348,0.899,0.815l0.024,0.203    c0.071,0.636,0.539,1.08,1.163,1.08c0.443,0,0.852-0.24,1.031-0.612c0.132-0.264,0.155-0.407,0.155-0.983v-3.538v-0.203    c0.013-0.624,0.373-1.02,0.924-1.02c0.54,0,0.912,0.407,0.912,1.02v0.203V128.394z"/>
		<path fill="#010101" d="M449.953,124.268c0.252-0.647,0.491-0.852,0.959-0.852c0.48,0,0.899,0.408,0.899,0.876    c0,0.156-0.036,0.336-0.108,0.504l-0.084,0.18l-2.554,5.865c-0.216,0.479-0.492,0.695-0.888,0.695    c-0.408,0-0.72-0.228-0.924-0.695l-2.53-5.854l-0.084-0.18c-0.084-0.18-0.12-0.359-0.12-0.516c0-0.468,0.432-0.876,0.924-0.876    c0.468,0,0.707,0.217,0.959,0.864l1.764,4.401L449.953,124.268z"/>
		<path fill="#010101" d="M458.112,124.233c0.204-0.564,0.468-0.804,0.888-0.804c0.443,0,0.779,0.287,0.899,0.804l1.451,5.9    l0.048,0.191c0.024,0.12,0.036,0.24,0.036,0.36c0,0.479-0.407,0.875-0.899,0.875c-0.468,0-0.804-0.287-0.924-0.791l-0.048-0.204    l-0.779-3.202l-1.067,3.43l-0.061,0.168c-0.131,0.384-0.432,0.612-0.779,0.612c-0.396,0-0.684-0.264-0.84-0.78l-1.055-3.43    l-0.756,3.202l-0.048,0.192c-0.132,0.527-0.456,0.803-0.923,0.803c-0.504,0-0.9-0.396-0.9-0.899c0-0.096,0.012-0.228,0.036-0.323    l0.048-0.192l1.403-5.948c0.108-0.48,0.444-0.768,0.864-0.768c0.395,0,0.684,0.228,0.863,0.695l1.295,3.563L458.112,124.233z"/>
	</g>
</g>
<path pointer-events="all" fill="#FFFFFF" stroke="#010101" stroke-width="2" stroke-miterlimit="10" d="M409.5,154.5  c13.334,7.2,26.666,7.2,40,0c13.333-7.2,26.667-7.2,40,0v18c-13.333-7.2-26.667-7.2-40,0c-13.334,7.2-26.666,7.2-40,0V154.5z"/>
<rect x="269.5" y="153.5" pointer-events="all" fill="none" width="40" height="20"/>
<g transform="translate(-0.5 -0.5)">
	<g enable-background="new    ">
		<path fill="#010101" d="M274.143,166.576c0-0.574,0.456-1.031,1.032-1.031s1.043,0.457,1.043,1.031    c0,0.576-0.468,1.045-1.043,1.045S274.143,167.152,274.143,166.576z"/>
		<path fill="#010101" d="M281.508,160.568v-0.18c0.013-0.539,0.324-0.889,0.792-0.889c0.479,0,0.804,0.361,0.804,0.889v0.18v5.973    c0,0.383-0.023,0.539-0.12,0.695c-0.12,0.229-0.359,0.348-0.647,0.348c-0.384,0-0.611-0.18-0.756-0.576    c-0.516,0.445-0.971,0.613-1.631,0.613c-1.596,0-2.771-1.26-2.771-2.963c0-1.68,1.175-2.951,2.734-2.951    c0.624,0,1.104,0.168,1.595,0.553V160.568z M278.846,164.646c0,0.756,0.6,1.367,1.355,1.367c0.744,0,1.344-0.611,1.344-1.355    s-0.612-1.344-1.344-1.344C279.457,163.314,278.846,163.914,278.846,164.646z"/>
		<path fill="#010101" d="M284.547,160.568v-0.18c0.012-0.539,0.324-0.889,0.803-0.889c0.48,0,0.793,0.361,0.793,0.889v0.107v6.021    v0.107c0.012,0.6-0.289,0.959-0.793,0.959c-0.479,0-0.803-0.359-0.803-0.887v-0.18V160.568z"/>
		<path fill="#010101" d="M287.582,160.568v-0.18c0.012-0.539,0.324-0.889,0.804-0.889s0.792,0.361,0.792,0.889v0.107v6.021v0.107    c0.012,0.6-0.288,0.959-0.792,0.959c-0.479,0-0.804-0.359-0.804-0.887v-0.18V160.568z"/>
		<path fill="#010101" d="M292.394,159.033l0.048-0.168c0.12-0.42,0.372-0.635,0.732-0.635c0.407,0,0.73,0.311,0.73,0.719    c0,0.084-0.012,0.203-0.035,0.299l-0.024,0.084l-2.327,8.695l-0.047,0.182c-0.121,0.406-0.373,0.623-0.744,0.623    c-0.408,0-0.731-0.313-0.731-0.721c0-0.084,0.024-0.203,0.048-0.287l0.048-0.168L292.394,159.033z"/>
		<path fill="#010101" d="M294.662,166.576c0-0.574,0.456-1.031,1.031-1.031c0.576,0,1.044,0.457,1.044,1.031    c0,0.576-0.468,1.045-1.044,1.045C295.118,167.621,294.662,167.152,294.662,166.576z"/>
		<path fill="#010101" d="M301.992,162.822c0,0.373-0.336,0.709-0.72,0.709c-0.204,0-0.384-0.061-0.684-0.24    c-0.384-0.217-0.491-0.275-0.659-0.275s-0.301,0.131-0.301,0.275c0,0.264,0.229,0.396,0.96,0.588    c0.54,0.143,0.779,0.227,1.031,0.359c0.491,0.275,0.78,0.791,0.78,1.391c0,1.176-0.948,1.992-2.303,1.992    c-1.248,0-2.399-0.756-2.399-1.572c0-0.432,0.336-0.814,0.731-0.814c0.264,0,0.516,0.131,0.84,0.406    c0.468,0.408,0.636,0.492,0.947,0.492c0.313,0,0.552-0.18,0.552-0.42c0-0.203-0.155-0.324-0.528-0.406    c-0.443-0.109-1.043-0.313-1.379-0.469c-0.527-0.264-0.875-0.828-0.875-1.416c0-0.67,0.443-1.295,1.127-1.57    c0.252-0.096,0.576-0.156,0.972-0.156C301.104,161.695,301.992,162.223,301.992,162.822z"/>
		<path fill="#010101" d="M309.012,164.682c0,1.607-1.344,2.939-2.975,2.939s-2.986-1.32-2.986-2.902    c0-1.691,1.318-3.012,2.998-3.012C307.691,161.707,309.012,163.027,309.012,164.682z M304.682,164.693    c0,0.709,0.611,1.309,1.355,1.309c0.743,0,1.355-0.6,1.355-1.344c0-0.756-0.6-1.355-1.344-1.355    C305.27,163.303,304.682,163.902,304.682,164.693z"/>
	</g>
</g>
<rect x="489.5" y="153.5" pointer-events="all" fill="none" width="20" height="20"/>
<g transform="translate(-0.5 -0.5)">
	<g enable-background="new    ">
		<path fill="#010101" d="M493.813,166.576c0-0.574,0.456-1.031,1.031-1.031c0.576,0,1.044,0.457,1.044,1.031    c0,0.576-0.468,1.045-1.044,1.045C494.269,167.621,493.813,167.152,493.813,166.576z"/>
		<path fill="#010101" d="M498.84,166.613v0.443c0,0.672,0,0.768-0.084,1.043c-0.204,0.779-0.936,1.404-1.655,1.404    c-0.552,0-0.936-0.336-0.936-0.805c0-0.275,0.12-0.49,0.384-0.658l0.313-0.205c0.264-0.168,0.383-0.539,0.383-1.139v-3.887v-0.18    c0.012-0.539,0.324-0.887,0.804-0.887s0.792,0.359,0.792,0.887v0.18V166.613z M499.043,160.436c0,0.529-0.432,0.961-0.959,0.961    s-0.959-0.432-0.959-0.936c0-0.553,0.42-0.973,0.971-0.973C498.623,159.488,499.043,159.908,499.043,160.436z"/>
		<path fill="#010101" d="M501.899,167.609c-1.115,0-1.979-0.9-1.979-2.053c0-1.186,0.911-2.098,2.087-2.098    c0.396,0,0.756,0.107,1.188,0.336c0-0.588-0.204-0.805-0.708-0.805c-0.108,0-0.288,0.025-0.432,0.061l-0.384,0.107    c-0.229,0.072-0.359,0.096-0.492,0.096c-0.371,0-0.623-0.264-0.623-0.635c0-0.623,0.779-1.031,1.906-1.031    c0.779,0,1.464,0.229,1.871,0.635c0.36,0.373,0.504,0.912,0.492,1.836v0.42v1.822v0.217c0,0.406-0.036,0.563-0.18,0.756    c-0.156,0.203-0.385,0.311-0.648,0.311c-0.336,0-0.563-0.143-0.743-0.492C502.787,167.453,502.379,167.609,501.899,167.609z     M502.403,164.682c-0.432,0-0.779,0.359-0.779,0.805c0,0.455,0.348,0.803,0.804,0.803c0.443,0,0.768-0.336,0.768-0.779    C503.195,165.041,502.859,164.682,502.403,164.682z"/>
		<path fill="#010101" d="M508.99,161.707c0.564,0,1.032,0.445,1.032,0.984c0,0.527-0.433,0.947-0.96,0.947    c-0.228,0-0.264-0.023-0.575-0.203c-0.12-0.072-0.216-0.109-0.312-0.109c-0.252,0-0.348,0.205-0.348,0.732v2.459v0.18    c-0.013,0.539-0.313,0.887-0.793,0.887c-0.479,0-0.803-0.359-0.803-0.887v-0.18v-3.611c0-0.467,0.012-0.574,0.107-0.742    c0.156-0.277,0.396-0.42,0.684-0.42c0.324,0,0.576,0.168,0.732,0.467C508.127,161.887,508.559,161.707,508.99,161.707z"/>
	</g>
</g>
<path fill="#010101" d="M58.908,130h3v6h-3V130z"/>
<path fill="#010101" d="M46.908,133h3v3h-3V133z"/>
<path fill="#010101" d="M70.908,133h3v3h-3V133z"/>
<path fill="#010101" d="M49.908,136h3v3h-3V136z"/>
<path fill="#010101" d="M67.908,136h3v3h-3V136z"/>
<path fill="#010101" d="M37.908,139h3v3h-3V139z"/>
<path fill="#010101" d="M79.908,139h3v3h-3V139z"/>
<path fill="#010101" d="M40.908,142h3v3h-3V142z"/>
<path fill="#010101" d="M52.908,142h15v3h-3v3h-3v3h3v-3h3v9h-3v3h3v3h-15v-3h3v-3h-3v-9h3v-3h-3V142z"/>
<path fill="#010101" d="M76.908,142h3v3h-3V142z"/>
<path fill="#010101" d="M46.908,145h6v3h-6V145z"/>
<path fill="#FFFFFF" d="M52.908,145h3v3h-3V145z"/>
<path fill="#FFFFFF" d="M64.908,145h3v3h-3V145z"/>
<path fill="#010101" d="M67.908,145h6v3h-6V145z"/>
<path fill="#010101" d="M43.908,148h3v3h-3V148z"/>
<path fill="#FFFFFF" d="M46.908,148h6v9h-6v-3h-3v-3h3V148z"/>
<path fill="#FFFFFF" d="M61.908,148h3v3h-3V148z"/>
<path fill="#FFFFFF" d="M67.908,148h6v3h3v3h-3v3h-6V148z"/>
<path fill="#010101" d="M73.908,148h3v3h-3V148z"/>
<path fill="#010101" d="M37.908,151h6v3h-6V151z"/>
<path fill="#010101" d="M76.908,151h6v3h-6V151z"/>
<path fill="#010101" d="M43.908,154h3v3h-3V154z"/>
<path fill="#010101" d="M73.908,154h3v3h-3V154z"/>
<path fill="#010101" d="M46.908,157h6v3h-6V157z"/>
<path fill="#FFFFFF" d="M52.908,157h3v3h-3V157z"/>
<path fill="#FFFFFF" d="M64.908,157h3v3h-3V157z"/>
<path fill="#010101" d="M67.908,157h6v3h-6V157z"/>
<path fill="#010101" d="M46.908,163h3v3h-3V163z"/>
<path fill="#010101" d="M70.908,163h3v3h-3V163z"/>
<path fill="#010101" d="M43.908,166h3v3h-3V166z"/>
<path fill="#FFFFFF" d="M46.908,166h3v3h-3V166z"/>
<path fill="#010101" d="M49.908,166h3v3h-3V166z"/>
<path fill="#010101" d="M55.908,166h3v3h-3V166z"/>
<path fill="#010101" d="M61.908,166h3v3h-3V166z"/>
<path fill="#010101" d="M67.908,166h3v3h-3V166z"/>
<path fill="#FFFFFF" d="M70.908,166h3v3h-3V166z"/>
<path fill="#010101" d="M73.908,166h3v3h-3V166z"/>
<path fill="#010101" d="M40.908,169h3v3h-3V169z"/>
<path fill="#FFFFFF" d="M43.908,169h3v3h-3V169z"/>
<path fill="#010101" d="M46.908,169h3v3h-3V169z"/>
<path fill="#FFFFFF" d="M49.908,169h3v3h-3V169z"/>
<path fill="#010101" d="M52.908,169h3v3h-3V169z"/>
<path fill="#FFFFFF" d="M55.908,169h3v3h-3V169z"/>
<path fill="#010101" d="M58.908,169h3v3h-3V169z"/>
<path fill="#FFFFFF" d="M61.908,169h3v3h-3V169z"/>
<path fill="#010101" d="M64.908,169h3v3h-3V169z"/>
<path fill="#FFFFFF" d="M67.908,169h3v3h-3V169z"/>
<path fill="#010101" d="M70.908,169h3v3h-3V169z"/>
<path fill="#FFFFFF" d="M73.908,169h3v3h-3V169z"/>
<path fill="#010101" d="M76.908,169h3v3h-3V169z"/>
<path fill="#010101" d="M37.908,172h3v3h-3V172z"/>
<path fill="#010101" d="M43.908,172h3v3h-3V172z"/>
<path fill="#010101" d="M49.908,172h3v3h-3V172z"/>
<path fill="#010101" d="M55.908,172h3v3h-3V172z"/>
<path fill="#010101" d="M61.908,172h3v3h-3V172z"/>
<path fill="#010101" d="M67.908,172h3v3h-3V172z"/>
<path fill="#010101" d="M73.908,172h3v3h-3V172z"/>
<path fill="#010101" d="M79.908,172h3v3h-3V172z"/>
<path fill="#010101" d="M58.908,58.132h3v3h-3V58.132z"/>
<path fill="#010101" d="M55.908,61.132h3v21h-3v-15h-3v-3h3V61.132z"/>
<path fill="#010101" d="M61.908,61.132h6v3h-3v18h-3V61.132z"/>
<path fill="#010101" d="M67.908,64.132h3v21h-3V64.132z"/>
<path fill="#010101" d="M49.908,67.132h3v21h-3v-12h-3v-3h3V67.132z"/>
<path fill="#010101" d="M43.908,76.132h3v21h-3V76.132z"/>
<path fill="#010101" d="M73.908,82.132h6v3h-6V82.132z"/>
<path fill="#010101" d="M70.908,85.132h3v3h-3V85.132z"/>
<path fill="#010101" d="M79.908,85.132h3v3h-3V85.132z"/>
<path fill="#010101" d="M67.908,88.132h3v3h-3V88.132z"/>
<path fill="#010101" d="M76.908,88.132h3v6h-3V88.132z"/>
<path fill="#010101" d="M64.908,91.132h3v3h-3V91.132z"/>
<path fill="#010101" d="M73.908,94.132h3v6h-3V94.132z"/>
<path fill="#010101" d="M46.908,97.132h3v6h-3V97.132z"/>
<path fill="#010101" d="M70.908,100.132h3v3h-3V100.132z"/>
<path fill="#010101" d="M49.908,103.132h3v3h-3V103.132z"/>
<path fill="#010101" d="M64.908,103.132h6v3h-6V103.132z"/>
<path fill="#010101" d="M50.408,205.887h15v3h-15V205.887z"/>
<path fill="#010101" d="M47.408,208.887h3v3h-3V208.887z"/>
<path fill="#010101" d="M65.408,208.887h3v3h-3V208.887z"/>
<path fill="#010101" d="M44.408,211.887h3v6h-3V211.887z"/>
<path fill="#010101" d="M53.408,211.887h9v3h-3v3h-3v6h-6v-9h3V211.887z"/>
<path fill="#010101" d="M68.408,211.887h3v3h-3V211.887z"/>
<path fill="#010101" d="M62.408,214.887h3v3h-3V214.887z"/>
<path fill="#010101" d="M71.408,214.887h3v15h-3V214.887z"/>
<path fill="#010101" d="M65.408,217.887h3v9h-3V217.887z"/>
<path fill="#010101" d="M80.408,220.887h3v3h-3V220.887z"/>
<path fill="#010101" d="M56.408,223.887h3v3h-3V223.887z"/>
<path fill="#010101" d="M83.408,223.887h3v3h-3V223.887z"/>
<path fill="#010101" d="M50.408,226.887h6v9h-3v-3h-9v-3h6V226.887z"/>
<path fill="#010101" d="M62.408,226.887h3v3h-3V226.887z"/>
<path fill="#010101" d="M59.408,229.887h3v3h-3V229.887z"/>
<path fill="#010101" d="M68.408,229.887h3v3h-3V229.887z"/>
<path fill="#010101" d="M77.408,229.887h9v3h-9V229.887z"/>
<path fill="#010101" d="M65.408,232.887h3v3h-3V232.887z"/>
<path fill="#010101" d="M47.408,235.887h6v3h-6V235.887z"/>
<path fill="#010101" d="M59.408,235.887h6v3h-6V235.887z"/>
<path fill="#010101" d="M80.408,235.887h3v3h-3V235.887z"/>
<path fill="#010101" d="M56.408,238.887h3v3h-3V238.887z"/>
<path fill="#010101" d="M77.408,238.887h3v3h-3V238.887z"/>
<path fill="#010101" d="M41.408,241.887h3v3h-3V241.887z"/>
<path fill="#010101" d="M53.408,241.887h3v3h-3V241.887z"/>
<path fill="#010101" d="M44.408,244.887h9v3h-9V244.887z"/>
<path pointer-events="all" fill="#FFFFFF" stroke="#010101" stroke-width="2" stroke-miterlimit="10" d="M188.983,53.215h80v37.5  l-40,22.5l-40-22.5V53.215z"/>
<g>
	<path fill="#010101" d="M211.075,69.183c0-0.575,0.456-1.031,1.032-1.031s1.043,0.456,1.043,1.031c0,0.576-0.468,1.044-1.043,1.044   S211.075,69.759,211.075,69.183z"/>
	<path fill="#010101" d="M218.441,63.174v-0.18c0.012-0.539,0.324-0.888,0.792-0.888c0.48,0,0.804,0.36,0.804,0.888v0.18v5.974   c0,0.383-0.024,0.539-0.12,0.695c-0.12,0.228-0.359,0.348-0.647,0.348c-0.384,0-0.612-0.18-0.755-0.576   c-0.516,0.444-0.972,0.612-1.631,0.612c-1.595,0-2.771-1.26-2.771-2.963c0-1.679,1.175-2.95,2.734-2.95   c0.624,0,1.104,0.168,1.595,0.552V63.174z M215.778,67.252c0,0.756,0.6,1.367,1.355,1.367c0.744,0,1.343-0.611,1.343-1.355   c0-0.743-0.612-1.343-1.343-1.343C216.39,65.921,215.778,66.521,215.778,67.252z"/>
	<path fill="#010101" d="M221.479,63.174v-0.18c0.012-0.539,0.324-0.888,0.803-0.888c0.48,0,0.792,0.36,0.792,0.888v0.108v6.021   v0.107c0.012,0.601-0.288,0.96-0.792,0.96c-0.479,0-0.803-0.359-0.803-0.888v-0.18V63.174z"/>
	<path fill="#010101" d="M224.515,63.174v-0.18c0.012-0.539,0.324-0.888,0.803-0.888c0.48,0,0.792,0.36,0.792,0.888v0.108v6.021   v0.107c0.012,0.601-0.288,0.96-0.792,0.96c-0.479,0-0.803-0.359-0.803-0.888v-0.18V63.174z"/>
	<path fill="#010101" d="M229.326,61.639l0.048-0.167c0.12-0.42,0.372-0.636,0.732-0.636c0.408,0,0.731,0.312,0.731,0.719   c0,0.084-0.012,0.204-0.036,0.3l-0.024,0.084l-2.327,8.695l-0.048,0.181c-0.12,0.407-0.372,0.623-0.744,0.623   c-0.408,0-0.731-0.312-0.731-0.72c0-0.084,0.024-0.203,0.048-0.287l0.048-0.168L229.326,61.639z"/>
	<path fill="#010101" d="M231.595,69.183c0-0.575,0.456-1.031,1.032-1.031s1.043,0.456,1.043,1.031c0,0.576-0.468,1.044-1.043,1.044   S231.595,69.759,231.595,69.183z"/>
	<path fill="#010101" d="M238.925,65.429c0,0.372-0.336,0.708-0.72,0.708c-0.204,0-0.384-0.06-0.684-0.24   c-0.384-0.216-0.492-0.275-0.66-0.275s-0.3,0.132-0.3,0.275c0,0.264,0.228,0.396,0.959,0.588c0.54,0.144,0.779,0.228,1.031,0.36   c0.492,0.275,0.78,0.791,0.78,1.391c0,1.176-0.948,1.991-2.303,1.991c-1.248,0-2.399-0.756-2.399-1.571   c0-0.432,0.336-0.815,0.731-0.815c0.264,0,0.516,0.132,0.84,0.407c0.468,0.408,0.636,0.492,0.947,0.492   c0.312,0,0.552-0.18,0.552-0.42c0-0.204-0.156-0.324-0.528-0.407c-0.443-0.108-1.043-0.313-1.379-0.468   c-0.528-0.265-0.875-0.828-0.875-1.416c0-0.671,0.443-1.295,1.127-1.57c0.251-0.097,0.576-0.156,0.971-0.156   C238.037,64.302,238.925,64.83,238.925,65.429z"/>
	<path fill="#010101" d="M245.944,67.289c0,1.607-1.343,2.938-2.975,2.938c-1.631,0-2.986-1.319-2.986-2.902   c0-1.691,1.319-3.011,2.999-3.011C244.625,64.314,245.944,65.633,245.944,67.289z M241.614,67.3c0,0.708,0.611,1.308,1.355,1.308   s1.355-0.6,1.355-1.344c0-0.755-0.6-1.354-1.343-1.354C242.202,65.91,241.614,66.509,241.614,67.3z"/>
</g>
<g>
	<path fill="#010101" d="M206.125,79.602v-1.943v-0.203c0-0.624,0.36-1.02,0.912-1.02s0.923,0.407,0.923,1.02v0.203v5.697v0.204   c-0.024,0.623-0.372,1.031-0.923,1.031s-0.912-0.42-0.912-1.031v-0.204v-2.075h-2.986v2.075v0.204c0,0.623-0.36,1.031-0.912,1.031   s-0.923-0.42-0.923-1.031v-0.204v-5.697v-0.203c0.012-0.624,0.372-1.02,0.923-1.02s0.912,0.407,0.912,1.02v0.203v1.943H206.125z"/>
	<path fill="#010101" d="M215.125,81.689c0,1.607-1.343,2.938-2.975,2.938c-1.631,0-2.986-1.319-2.986-2.902   c0-1.691,1.319-3.011,2.999-3.011C213.805,78.714,215.125,80.034,215.125,81.689z M210.795,81.701c0,0.708,0.611,1.308,1.355,1.308   s1.355-0.6,1.355-1.344c0-0.755-0.6-1.354-1.343-1.354C211.382,80.31,210.795,80.91,210.795,81.701z"/>
	<path fill="#010101" d="M216.447,77.983v-0.18c0.012-0.552,0.324-0.888,0.803-0.888c0.468,0,0.792,0.359,0.792,0.888v0.18v0.852   h0.18h0.168c0.479,0.012,0.792,0.288,0.792,0.72c0,0.42-0.324,0.72-0.792,0.72h-0.168h-0.18v3.25v0.18   c-0.012,0.54-0.324,0.888-0.803,0.888c-0.468,0-0.792-0.359-0.792-0.888v-0.18v-3.25c-0.036,0-0.06,0-0.084,0   c-0.516,0-0.828-0.276-0.828-0.72c0-0.479,0.324-0.731,0.912-0.72V77.983z"/>
	<path fill="#010101" d="M220.911,82.132c-0.6,0-0.959-0.3-0.959-0.791c0-0.48,0.36-0.804,0.887-0.804h0.18h0.647h0.18   c0.54,0.012,0.887,0.323,0.887,0.791c0,0.48-0.36,0.804-0.887,0.804h-0.096h-0.731C220.971,82.132,220.935,82.132,220.911,82.132z"/>
	<path fill="#010101" d="M228.205,77.575v-0.18c0.012-0.539,0.324-0.888,0.792-0.888c0.48,0,0.804,0.36,0.804,0.888v0.18v5.974   c0,0.383-0.024,0.539-0.12,0.695c-0.12,0.228-0.359,0.348-0.647,0.348c-0.384,0-0.612-0.18-0.755-0.576   c-0.516,0.444-0.972,0.612-1.631,0.612c-1.595,0-2.771-1.26-2.771-2.963c0-1.679,1.175-2.95,2.734-2.95   c0.624,0,1.104,0.168,1.595,0.552V77.575z M225.542,81.653c0,0.756,0.6,1.367,1.355,1.367c0.744,0,1.343-0.611,1.343-1.355   c0-0.743-0.612-1.343-1.343-1.343C226.154,80.322,225.542,80.921,225.542,81.653z"/>
	<path fill="#010101" d="M233.822,82.984c0.324,0,0.6-0.096,0.923-0.336c0.192-0.144,0.324-0.191,0.504-0.191   c0.456,0,0.803,0.348,0.803,0.791c0,0.336-0.18,0.601-0.6,0.888c-0.444,0.313-1.055,0.492-1.631,0.492   c-1.607,0-2.975-1.367-2.975-2.975c0-1.595,1.343-2.938,2.926-2.938c1.295,0,2.507,0.947,2.507,1.991   c0,0.348-0.18,0.563-0.66,0.779l-2.663,1.176C233.222,82.888,233.474,82.984,233.822,82.984z M233.822,80.274   c-0.696,0-1.271,0.527-1.332,1.211l2.039-0.875C234.374,80.37,234.146,80.274,233.822,80.274z"/>
	<path fill="#010101" d="M238.838,85.754v0.18c-0.012,0.552-0.312,0.888-0.792,0.888c-0.479,0-0.803-0.348-0.803-0.888v-0.18v-5.973   c0-0.384,0.024-0.539,0.12-0.695c0.12-0.216,0.36-0.336,0.648-0.336c0.384,0,0.624,0.18,0.755,0.575   c0.516-0.443,0.972-0.611,1.631-0.611c1.595,0,2.771,1.26,2.771,2.963c0,1.679-1.176,2.95-2.735,2.95   c-0.624,0-1.103-0.168-1.595-0.563V85.754z M241.5,81.689c0-0.768-0.6-1.367-1.355-1.367c-0.744,0-1.343,0.6-1.343,1.355   c0,0.743,0.612,1.343,1.343,1.343C240.889,83.02,241.5,82.42,241.5,81.689z"/>
	<path fill="#010101" d="M244.215,77.575v-0.18c0.012-0.539,0.324-0.888,0.803-0.888c0.48,0,0.792,0.36,0.792,0.888v0.108v6.021   v0.107c0.012,0.601-0.288,0.96-0.792,0.96c-0.479,0-0.803-0.359-0.803-0.888v-0.18V77.575z"/>
	<path fill="#010101" d="M252.816,81.689c0,1.607-1.343,2.938-2.975,2.938c-1.631,0-2.986-1.319-2.986-2.902   c0-1.691,1.319-3.011,2.999-3.011C251.497,78.714,252.816,80.034,252.816,81.689z M248.486,81.701c0,0.708,0.611,1.308,1.355,1.308   s1.355-0.6,1.355-1.344c0-0.755-0.6-1.354-1.343-1.354C249.074,80.31,248.486,80.91,248.486,81.701z"/>
	<path fill="#010101" d="M257.089,79.518l0.072-0.18c0.18-0.396,0.444-0.588,0.803-0.588c0.432,0,0.828,0.372,0.828,0.792   c0,0.18-0.048,0.335-0.192,0.635L256.31,85c-0.216,0.455-0.312,0.611-0.48,0.827c-0.312,0.396-0.839,0.647-1.343,0.647   c-0.768,0-1.415-0.479-1.415-1.043c0-0.42,0.324-0.78,0.708-0.78c0.108,0,0.216,0.013,0.336,0.048l0.228,0.061   c0.084,0.023,0.167,0.036,0.24,0.036c0.18,0,0.348-0.168,0.468-0.479l0.168-0.433l-1.823-3.741l-0.084-0.156   c-0.072-0.168-0.12-0.336-0.12-0.479c0-0.408,0.384-0.756,0.803-0.756c0.348,0,0.6,0.18,0.768,0.552l0.072,0.156l1.175,2.603   L257.089,79.518z"/>
</g>
</svg>