<?xml version="1.0" encoding="UTF-8" standalone="no"?>
<!-- Generator: Adobe Illustrator 14.0.0, SVG Export Plug-In . SVG Version: 6.00 Build 43363)  -->

<svg
   xmlns:dc="http://purl.org/dc/elements/1.1/"
   xmlns:cc="http://creativecommons.org/ns#"
   xmlns:rdf="http://www.w3.org/1999/02/22-rdf-syntax-ns#"
   xmlns:svg="http://www.w3.org/2000/svg"
   xmlns="http://www.w3.org/2000/svg"
   xmlns:sodipodi="http://sodipodi.sourceforge.net/DTD/sodipodi-0.dtd"
   xmlns:inkscape="http://www.inkscape.org/namespaces/inkscape"
   version="1.1"
   id="Layer_1"
   x="0px"
   y="0px"
   width="50px"
   height="50px"
   viewBox="0 0 50 50"
   enable-background="new 0 0 50 50"
   xml:space="preserve"
   inkscape:version="0.91 r13725"
   sodipodi:docname="github_lite.svg"><metadata
   id="metadata5035"><rdf:RDF><cc:Work
       rdf:about=""><dc:format>image/svg+xml</dc:format><dc:type
         rdf:resource="http://purl.org/dc/dcmitype/StillImage" /><dc:title></dc:title></cc:Work></rdf:RDF></metadata><defs
   id="defs5033" /><sodipodi:namedview
   pagecolor="#ffffff"
   bordercolor="#666666"
   borderopacity="1"
   objecttolerance="10"
   gridtolerance="10"
   guidetolerance="10"
   inkscape:pageopacity="0"
   inkscape:pageshadow="2"
   inkscape:window-width="1021"
   inkscape:window-height="792"
   id="namedview5031"
   showgrid="false"
   inkscape:zoom="11.191563"
   inkscape:cx="24.776617"
   inkscape:cy="25"
   inkscape:window-x="132"
   inkscape:window-y="86"
   inkscape:window-maximized="0"
   inkscape:current-layer="Layer_1" />
<path
   fill-rule="evenodd"
   clip-rule="evenodd"
   d="M24.999,1.674c-13.206,0-23.915,10.708-23.915,23.917  c0,10.566,6.852,19.53,16.357,22.693c1.196,0.219,1.632-0.52,1.632-1.153c0-0.567-0.021-2.071-0.032-4.067  c-6.653,1.445-8.057-3.206-8.057-3.206c-1.087-2.763-2.655-3.498-2.655-3.498c-2.171-1.484,0.164-1.454,0.164-1.454  c2.4,0.169,3.664,2.465,3.664,2.465c2.133,3.654,5.597,2.6,6.96,1.987c0.217-1.546,0.835-2.6,1.519-3.197  c-5.311-0.604-10.895-2.655-10.895-11.82c0-2.611,0.932-4.746,2.462-6.418c-0.246-0.605-1.067-3.037,0.234-6.33  c0,0,2.008-0.643,6.577,2.452c1.907-0.53,3.953-0.795,5.987-0.805c2.031,0.009,4.077,0.274,5.988,0.805  c4.565-3.095,6.569-2.452,6.569-2.452c1.305,3.293,0.485,5.725,0.238,6.33c1.533,1.672,2.458,3.807,2.458,6.418  c0,9.188-5.592,11.209-10.92,11.802c0.86,0.738,1.624,2.197,1.624,4.429c0,3.197-0.03,5.776-0.03,6.561  c0,0.64,0.432,1.384,1.646,1.15c9.494-3.169,16.341-12.127,16.341-22.69C48.917,12.382,38.208,1.674,24.999,1.674z"
   id="path5029"
   style="fill:#cccccc" />
</svg>