<?xml version="1.0" encoding="UTF-8"?>
<!-- Generator: Adobe Illustrator 14.0.0, SVG Export Plug-In . SVG Version: 6.00 Build 43363)  -->
<!DOCTYPE svg PUBLIC "-//W3C//DTD SVG 1.1//EN" "http://www.w3.org/Graphics/SVG/1.1/DTD/svg11.dtd">
<svg version="1.1" id="Layer_1" xmlns="http://www.w3.org/2000/svg" xmlns:xlink="http://www.w3.org/1999/xlink" x="0px" y="0px" width="256px" height="256px" viewBox="0 0 256 256" enable-background="new 0 0 256 256" xml:space="preserve">
<path fill-rule="evenodd" clip-rule="evenodd" fill="#ED7852" d="M239.96,16.041L66.841,189.166  C-21.189,112.959,46.014,65.854,33.435,5.977C67.059,4.563,90.38,40.804,93.447,66.645C125.53-0.472,222.354,33.646,239.96,16.041"/>
<path fill-rule="evenodd" clip-rule="evenodd" fill="#F0B24A" d="M205.458,50.55C170.073,77.769,62.9,183.902,15.597,231.206  c0.33,3.938,2.792,6.408,2.792,6.408L205.458,50.55"/>
<path fill-rule="evenodd" clip-rule="evenodd" fill="#F0B24A" d="M82.841,164.424C42.669,124.252,63.602,84.101,58.955,47.265  c9.528,33.828-12.478,74.231,29.235,115.946L82.841,164.424"/>
<path fill-rule="evenodd" clip-rule="evenodd" fill="#F0B24A" d="M82.653,65.05c-1.479,23.044-23.093,40.622-23.093,40.622  l0.655,2.961C85.673,87.118,82.653,65.05,82.653,65.05"/>
<path fill-rule="evenodd" clip-rule="evenodd" fill="#F0B24A" d="M130.251,121.155c0,0-21.025-40.73,16.75-81.79  c-12.324,16.589-27.592,42.375-14.285,79.325L130.251,121.155"/>
<path fill-rule="evenodd" clip-rule="evenodd" fill="#E46743" d="M239.96,16.041L66.841,189.166  c76.204,88.022,123.302,20.816,183.183,33.394c1.418-33.614-34.831-56.939-60.669-60.002  C256.47,130.476,222.354,33.646,239.96,16.041"/>
<path fill-rule="evenodd" clip-rule="evenodd" fill="#E3A139" d="M205.458,50.55c-27.226,35.385-133.362,142.548-180.66,189.85  c-3.944-0.325-6.409-2.785-6.409-2.785L205.458,50.55"/>
<path fill-rule="evenodd" clip-rule="evenodd" fill="#E3A139" d="M81.066,181.481c40.173,40.172,89.025,2.533,125.869,7.192  c-33.843-9.533-82.942,29.173-124.658-12.541L81.066,181.481"/>
<path fill-rule="evenodd" clip-rule="evenodd" fill="#E3A139" d="M194.477,215.862c-23.085,0.628-42.57-19.289-42.57-19.289  l-2.872,0.925C172.772,220.878,194.477,215.862,194.477,215.862"/>
<path fill-rule="evenodd" clip-rule="evenodd" fill="#E3A139" d="M143.365,117.235c0,0,34.552,17.835,69.389-14.213  c-14.074,10.452-35.951,23.412-67.299,12.125L143.365,117.235"/>
</svg>