<?xml version="1.0" encoding="UTF-8"?>
<!-- Generator: Adobe Illustrator 14.0.0, SVG Export Plug-In . SVG Version: 6.00 Build 43363)  -->
<!DOCTYPE svg PUBLIC "-//W3C//DTD SVG 1.1//EN" "http://www.w3.org/Graphics/SVG/1.1/DTD/svg11.dtd">
<svg version="1.1" id="Layer_1" xmlns="http://www.w3.org/2000/svg" xmlns:xlink="http://www.w3.org/1999/xlink" x="0px" y="0px" width="360px" height="120px" viewBox="0 0 360 120" enable-background="new 0 0 360 120" xml:space="preserve">
<path fill="#FCB86C" d="M102.261,12.724c-2.406,2.407,2.257,15.644-6.918,20.03c3.533,0.419,8.487,3.607,8.294,8.204  c-8.186-1.719-14.626,7.468-25.044-4.567L102.261,12.724"/>
<path fill="#F58F86" d="M102.261,12.724c-2.406,2.407-15.645-2.257-20.03,6.918c-0.419-3.532-3.607-8.487-8.203-8.293  c1.72,8.186-7.468,14.625,4.565,25.042L102.261,12.724"/>
<path fill="#95CC7D" d="M221.787,54.701C216.68,57.486,209.066,63.878,206,70.17h2.939c0.818-2.021,2.521-4.536,3.851-5.902  c8.386,3.748,17.21-2.775,17.21-11.343c0-1.534-0.302-3.136-0.92-4.755c-2.348,3.119-5.646,1.053-10.852,1.625  c-7.656,0.844-11.162,6.797-8.764,11.54C212.971,57.92,218.988,54.955,221.787,54.701z"/>
<g>
	<ellipse fill="#A2BFE4" cx="276.752" cy="112.948" rx="13.506" ry="6.052"/>
	<ellipse fill="#A2BFE4" cx="330.877" cy="112.948" rx="13.506" ry="6.052"/>
</g>
<ellipse fill="#FCD051" cx="145.984" cy="31.38" rx="23.75" ry="24.29"/>
<path fill="#EF3C24" d="M22.475,29.671c1.558-1.764,3.57-2.646,6.032-2.646h28.435c5.497,0,10.544,1.211,15.14,3.631  c4.596,2.421,8.288,5.991,11.079,10.709c2.789,4.72,4.186,10.361,4.186,16.925c0,6.238-1.396,11.654-4.186,16.249  c-2.791,4.598-6.505,8.084-11.14,10.464c-4.638,2.381-9.664,3.569-15.08,3.569H36.384v16.249c0,2.627-0.739,4.698-2.216,6.216  c-1.477,1.52-3.366,2.277-5.662,2.277c-2.216,0-4.166-0.779-5.847-2.339c-1.683-1.558-2.523-3.61-2.523-6.154V35.518  C20.136,33.385,20.915,31.437,22.475,29.671z M36.384,73.186h20.557c2.708,0,5.189-0.696,7.447-2.093  c2.256-1.395,4.041-3.241,5.354-5.54c1.312-2.296,1.969-4.717,1.969-7.262c0-4.349-1.437-8.063-4.308-11.14  c-2.874-3.078-6.36-4.616-10.463-4.616H36.384V73.186z"/>
<path fill="#F8991D" d="M95.84,113.561c-1.314,0-2.299-0.083-2.955-0.246c-1.477-0.819-2.668-1.908-3.569-3.262  c-0.904-1.354-1.354-2.851-1.354-4.493c0-1.395,0.327-2.749,0.984-4.063l35.328-69.056c0.82-1.641,1.928-2.893,3.324-3.754  c1.395-0.862,2.871-1.292,4.432-1.292c1.559,0,3.016,0.431,4.369,1.292s2.4,2.114,3.139,3.754l34.713,69.056  c0.656,1.231,0.984,2.545,0.984,3.939c0,2.298-0.883,4.228-2.646,5.785c-1.766,1.56-3.754,2.339-5.969,2.339  c-1.396,0-2.668-0.369-3.816-1.107c-1.15-0.739-2.092-1.847-2.832-3.324l-5.416-10.832h-45.422l-5.293,10.832  C102.443,112.084,99.778,113.561,95.84,113.561z M131.906,51.644l-15.141,30.404h29.051L131.906,51.644z"/>
<path fill="#44B649" d="M199.299,111.345c-1.682,1.478-3.631,2.216-5.846,2.216c-2.217,0-4.105-0.696-5.664-2.093  c-1.559-1.395-2.338-3.363-2.338-5.908V35.641c0-2.133,0.717-3.917,2.154-5.354c1.436-1.435,3.18-2.154,5.23-2.154h32.744  c5.742,0,10.729,1.313,14.955,3.939c4.227,2.627,7.428,6.074,9.602,10.34c2.174,4.268,3.262,8.782,3.262,13.541  c0,5.335-1.375,10.217-4.123,14.648c-2.75,4.432-6.791,7.715-12.125,9.848l16.371,19.941c1.148,1.724,1.725,3.489,1.725,5.293  c0,2.216-0.801,4.083-2.4,5.601c-1.602,1.52-3.508,2.277-5.725,2.277c-2.873,0-5.336-1.312-7.385-3.938l-18.588-26.589h-19.326  v22.28C201.822,107.857,200.98,109.868,199.299,111.345z M225.58,68.877c3.855,0,6.893-1.313,9.109-3.939  c2.215-2.625,3.322-5.703,3.322-9.232c0-3.446-1.088-6.42-3.262-8.924c-2.176-2.502-5.23-3.754-9.17-3.754h-23.758v25.85H225.58z"/>
<path fill="#7292CB" d="M296.604,75.647L284.91,88.572v17.233c0,2.462-0.799,4.37-2.4,5.724c-1.6,1.354-3.508,2.031-5.723,2.031  c-2.217,0-4.125-0.677-5.725-2.031c-1.6-1.354-2.4-3.262-2.4-5.724V35.518c0-2.462,0.818-4.41,2.461-5.847  c1.641-1.435,3.57-2.154,5.787-2.154c2.215,0,4.102,0.698,5.662,2.093c1.557,1.396,2.338,3.366,2.338,5.908v31.266l35.574-36.682  c1.887-1.804,3.857-2.708,5.908-2.708s3.98,0.904,5.787,2.708c1.723,1.56,2.584,3.366,2.584,5.416c0,1.97-0.861,3.816-2.584,5.54  c-2.791,3.366-7.307,8.167-13.541,14.402c-6.813,7.058-10.176,10.546-10.094,10.462l28.805,34.837  c1.311,1.806,1.969,3.569,1.969,5.293c0,2.216-0.924,4.063-2.77,5.539c-1.846,1.478-3.92,2.216-6.217,2.216  c-2.791,0-4.883-1.107-6.277-3.323L296.604,75.647z"/>
</svg>