<?xml version="1.0" encoding="UTF-8"?>
<!-- Generator: Adobe Illustrator 14.0.0, SVG Export Plug-In . SVG Version: 6.00 Build 43363)  -->
<!DOCTYPE svg PUBLIC "-//W3C//DTD SVG 1.1//EN" "http://www.w3.org/Graphics/SVG/1.1/DTD/svg11.dtd">
<svg version="1.1" id="Layer_1" xmlns="http://www.w3.org/2000/svg" xmlns:xlink="http://www.w3.org/1999/xlink" x="0px" y="0px" width="320px" height="230px" viewBox="0 0 320 230" enable-background="new 0 0 320 230" xml:space="preserve">
<path id="path3818" fill="#FFFFFF" d="M33.801,4.392l23.88,66.454H14.928c-4.557,0-6.84,3.356-5.188,7.603l7.781,20.034  c1.653,4.246,6.623,7.692,11.181,7.692h41.679l6.172,17.083H37.021c-4.557,0-6.841,3.445-5.188,7.691l7.781,19.945  c1.653,4.246,6.624,7.691,11.181,7.691h38.46l19.318,53.664c31.681,18.291,76.615,17.32,106.613,0l19.318-53.664h34.703  c4.557,0,9.527-3.445,11.18-7.691l7.781-19.945c1.652-4.246-0.631-7.691-5.188-7.691h-35.775l6.172-17.083h37.922  c4.557,0,9.527-3.446,11.18-7.692l7.781-20.034c1.652-4.246-0.631-7.603-5.188-7.603h-38.996l23.881-66.454h-45.078  c-12.969,0-31.457,7.658-37.117,25.759l-45.883,127.721L115.996,30.151C110.336,12.05,91.849,4.392,78.878,4.392H33.801z"/>
</svg>