<?xml version="1.0" encoding="UTF-8" standalone="no"?>
<!-- Generator: Adobe Illustrator 14.0.0, SVG Export Plug-In . SVG Version: 6.00 Build 43363)  -->

<svg
   xmlns:dc="http://purl.org/dc/elements/1.1/"
   xmlns:cc="http://creativecommons.org/ns#"
   xmlns:rdf="http://www.w3.org/1999/02/22-rdf-syntax-ns#"
   xmlns:svg="http://www.w3.org/2000/svg"
   xmlns="http://www.w3.org/2000/svg"
   xmlns:sodipodi="http://sodipodi.sourceforge.net/DTD/sodipodi-0.dtd"
   xmlns:inkscape="http://www.inkscape.org/namespaces/inkscape"
   version="1.1"
   id="Layer_1"
   x="0px"
   y="0px"
   width="320px"
   height="230px"
   viewBox="0 0 320 230"
   enable-background="new 0 0 320 230"
   xml:space="preserve"
   inkscape:version="0.91 r13725"
   sodipodi:docname="vanilla_dark.svg"><metadata
   id="metadata6132"><rdf:RDF><cc:Work
       rdf:about=""><dc:format>image/svg+xml</dc:format><dc:type
         rdf:resource="http://purl.org/dc/dcmitype/StillImage" /><dc:title></dc:title></cc:Work></rdf:RDF></metadata><defs
   id="defs6130" /><sodipodi:namedview
   pagecolor="#ffffff"
   bordercolor="#666666"
   borderopacity="1"
   objecttolerance="10"
   gridtolerance="10"
   guidetolerance="10"
   inkscape:pageopacity="0"
   inkscape:pageshadow="2"
   inkscape:window-width="1027"
   inkscape:window-height="767"
   id="namedview6128"
   showgrid="false"
   inkscape:zoom="2.2876465"
   inkscape:cx="158.90717"
   inkscape:cy="115"
   inkscape:window-x="0"
   inkscape:window-y="0"
   inkscape:window-maximized="0"
   inkscape:current-layer="Layer_1" />
<path
   id="path3818"
   fill="#FFFFFF"
   d="M33.801,4.392l23.88,66.454H14.928c-4.557,0-6.84,3.356-5.188,7.603l7.781,20.034  c1.653,4.246,6.623,7.692,11.181,7.692h41.679l6.172,17.083H37.021c-4.557,0-6.841,3.445-5.188,7.691l7.781,19.945  c1.653,4.246,6.624,7.691,11.181,7.691h38.46l19.318,53.664c31.681,18.291,76.615,17.32,106.613,0l19.318-53.664h34.703  c4.557,0,9.527-3.445,11.18-7.691l7.781-19.945c1.652-4.246-0.631-7.691-5.188-7.691h-35.775l6.172-17.083h37.922  c4.557,0,9.527-3.446,11.18-7.692l7.781-20.034c1.652-4.246-0.631-7.603-5.188-7.603h-38.996l23.881-66.454h-45.078  c-12.969,0-31.457,7.658-37.117,25.759l-45.883,127.721L115.996,30.151C110.336,12.05,91.849,4.392,78.878,4.392H33.801z"
   style="fill:#333333" />
</svg>